<svg width="1500" height="1500" viewBox="0 0 1500 1500" fill="none" xmlns="http://www.w3.org/2000/svg">
<g clip-path="url(#clip0_1371_2)">
<path d="M1149.12 282.32H414.74C401.785 282.337 389.365 287.493 380.207 296.657C371.05 305.821 365.902 318.245 365.895 331.2V834.749C365.904 847.704 371.052 860.126 380.209 869.289C389.367 878.452 401.785 883.607 414.74 883.624H1149.12C1162.07 883.608 1174.49 878.453 1183.65 869.289C1192.81 860.126 1197.95 847.703 1197.96 834.749V331.2C1197.95 318.246 1192.81 305.823 1183.65 296.66C1174.49 287.496 1162.07 282.341 1149.12 282.325V282.32Z" fill="#F2F2F2"/>
<path d="M1069.44 321.107H335.066C322.111 321.124 309.692 326.279 300.535 335.443C291.377 344.606 286.229 357.028 286.221 369.983V873.536C286.23 886.491 291.378 898.912 300.535 908.076C309.693 917.239 322.111 922.394 335.066 922.411H1069.44C1082.4 922.395 1094.81 917.239 1103.97 908.076C1113.13 898.913 1118.28 886.491 1118.29 873.536V369.983C1118.28 357.028 1113.13 344.605 1103.97 335.442C1094.81 326.279 1082.4 321.123 1069.44 321.107V321.107ZM1113.15 725.327C1113.15 831.335 1027.27 917.272 921.323 917.272H335.066C323.47 917.268 312.351 912.658 304.154 904.456C295.957 896.254 291.353 885.132 291.357 873.536V369.983C291.355 364.241 292.484 358.555 294.68 353.25C296.875 347.945 300.094 343.124 304.153 339.062C308.212 335.001 313.031 331.779 318.335 329.58C323.639 327.381 329.324 326.249 335.066 326.247H1069.44C1075.18 326.249 1080.87 327.381 1086.17 329.58C1091.48 331.779 1096.29 335.001 1100.35 339.062C1104.41 343.124 1107.63 347.945 1109.83 353.25C1112.02 358.555 1113.15 364.241 1113.15 369.983V725.327Z" fill="#3F3D56"/>
<path d="M391.118 813.284L386.771 810.547C389.597 806.053 392.512 801.698 395.434 797.602L399.615 800.588C396.749 804.603 393.891 808.874 391.115 813.288L391.118 813.284Z" fill="#CCCCCC"/>
<path d="M419.438 776.657L415.762 773.069C423.181 765.381 431.399 758.507 440.277 752.563L443.108 756.852C434.536 762.593 426.601 769.233 419.438 776.658V776.657ZM547.575 744.218C542.244 744.161 536.926 743.669 531.675 742.747L532.506 737.676C537.483 738.557 542.525 739.025 547.579 739.076C552.695 739.071 557.795 738.501 562.786 737.376L563.895 742.395C558.54 743.601 553.068 744.212 547.579 744.217L547.575 744.218ZM470.721 743.538L469.177 738.638C474.726 736.889 480.406 735.592 486.164 734.757C490.946 734.054 495.773 733.698 500.607 733.694H500.923V738.834H500.607C496.02 738.838 491.438 739.176 486.9 739.844C481.416 740.64 476.006 741.877 470.721 743.544V743.538ZM593.147 728.686L589.864 724.733C596.951 718.842 602.031 711.719 607.41 704.177L609.556 701.177L613.724 704.177L611.591 707.158C606.014 714.979 600.744 722.367 593.147 728.682V728.686ZM634.337 681.563L631.177 677.51C638.453 671.906 646.509 667.395 655.089 664.12C656.65 663.506 658.145 662.955 659.574 662.469L661.232 667.332C659.87 667.798 658.453 668.318 656.968 668.903C648.848 671.998 641.224 676.263 634.337 681.563V681.563ZM696.344 663.712C694.616 663.712 692.977 663.696 691.402 663.678L691.462 658.539C693.072 658.558 694.752 658.562 696.531 658.573C705.223 658.591 713.908 658.087 722.539 657.063L723.131 662.168C714.241 663.215 705.296 663.73 696.344 663.712V663.712ZM754.374 656.982L753.356 651.945C762.582 650.078 773.314 647.856 783.938 645.113L785.222 650.09C774.477 652.864 763.665 655.1 754.374 656.982V656.982ZM815.474 640.347L813.553 635.58C823.154 631.795 832.322 626.993 840.9 621.255L843.779 625.511C834.902 631.453 825.415 636.426 815.479 640.347H815.474ZM867.374 603.624L863.206 600.624C864.64 598.634 865.878 596.693 867.076 594.816C870.612 589.275 874.27 583.544 882.976 576.51L883.585 576.022L886.768 580.055L886.202 580.508C878.144 587.018 874.87 592.149 871.402 597.582C870.166 599.518 868.887 601.521 867.371 603.628L867.374 603.624ZM913.451 565.078L911.578 560.293C921.528 556.477 931.814 553.6 942.3 551.7L943.248 556.752C933.077 558.592 923.1 561.378 913.448 565.075L913.451 565.078Z" fill="#CCCCCC"/>
<path d="M974.647 552.981L974.326 547.852C979.317 547.539 984.535 547.334 989.835 547.238L989.928 552.378C984.703 552.47 979.561 552.678 974.647 552.978V552.981Z" fill="#CCCCCC"/>
<path d="M448.391 376.8H376.33C374.582 376.8 372.906 377.494 371.669 378.73C370.433 379.966 369.739 381.643 369.739 383.391C369.739 385.139 370.433 386.815 371.669 388.051C372.906 389.287 374.582 389.982 376.33 389.982H448.391C450.139 389.982 451.815 389.287 453.052 388.051C454.288 386.815 454.982 385.139 454.982 383.391C454.982 381.643 454.288 379.966 453.052 378.73C451.815 377.494 450.139 376.8 448.391 376.8V376.8Z" fill="#E6E6E6"/>
<path d="M569.093 376.8H497.031C495.283 376.8 493.606 377.494 492.37 378.73C491.134 379.966 490.44 381.643 490.44 383.391C490.44 385.139 491.134 386.815 492.37 388.051C493.606 389.287 495.283 389.982 497.031 389.982H569.093C570.841 389.982 572.517 389.287 573.753 388.051C574.99 386.815 575.684 385.139 575.684 383.391C575.684 381.643 574.99 379.966 573.753 378.73C572.517 377.494 570.841 376.8 569.093 376.8Z" fill="#E6E6E6"/>
<path d="M689.794 376.8H617.733C615.985 376.8 614.309 377.494 613.073 378.73C611.836 379.966 611.142 381.643 611.142 383.391C611.142 385.139 611.836 386.815 613.073 388.051C614.309 389.287 615.985 389.982 617.733 389.982H689.794C691.542 389.982 693.219 389.287 694.455 388.051C695.691 386.815 696.385 385.139 696.385 383.391C696.385 381.643 695.691 379.966 694.455 378.73C693.219 377.494 691.542 376.8 689.794 376.8Z" fill="#E6E6E6"/>
<path d="M1024.55 809.344H369.685V814.483H1024.55V809.344Z" fill="#E6E6E6"/>
<path d="M989.959 434.173C943.348 435.38 908.576 449.1 886.542 474.9C878.401 484.459 875.088 491.988 871.595 499.954C868.128 507.817 864.584 515.912 856.341 526.473V517.736C860.504 511.479 864.041 504.826 866.9 497.875C870.547 489.549 874.013 481.686 882.642 471.587C905.653 444.605 941.709 430.287 989.809 429.033L989.963 434.173H989.959Z" fill="#CCCCCC"/>
<path d="M871.595 499.956C868.128 507.819 864.584 515.913 856.34 526.475C855.364 527.734 854.311 529.045 853.182 530.406C823.443 565.791 783.714 577.406 751.767 586.759C749.767 587.35 747.812 587.89 745.912 588.404C717.512 596.113 701.946 595.83 690.363 595.65C678.73 595.445 671.051 595.316 657.312 603.179C632.119 617.544 621.795 638.564 611.805 658.89C601.505 679.807 591.799 699.568 567.043 708.844C549.862 715.269 537.792 712.082 525.029 708.744C514.063 705.844 494.299 634.368 476.8 623.944C440.666 631.525 418.709 749.678 391.307 812.944L386.582 810.888C414.703 746.029 437.867 626.874 475.721 618.908C492.593 615.362 514.808 700.726 526.338 703.758C538.306 706.919 549.58 709.874 565.245 704.015C588.101 695.484 596.936 677.471 607.182 656.631C617.044 636.587 628.215 613.871 654.744 598.71C669.716 590.153 678.422 590.31 690.444 590.51C701.897 590.715 717.357 590.972 745.915 583.084C747.353 582.672 748.815 582.261 750.332 581.824C781.611 572.676 820.518 561.293 849.232 527.116C851.768 524.118 854.142 520.987 856.345 517.737C860.507 511.479 864.043 504.826 866.9 497.874C870.547 489.548 875.092 491.99 871.6 499.956H871.595Z" fill="#4B7ED6"/>
<path d="M597.733 1087.85C595.961 1081.34 592.648 1075.36 588.074 1070.41L573.016 1001.72L540.192 1009.77L559 1078.58C557.741 1085.19 558.099 1092 560.043 1098.44C564.687 1114.62 576.889 1125.36 587.296 1122.44C597.703 1119.52 602.375 1104.03 597.731 1087.85H597.733Z" fill="#FFB6B6"/>
<path d="M593.193 637.276C593.193 637.276 541.357 636.214 528.177 673.985C516.177 708.365 501.958 802.817 509.646 808.275L542.371 1040.79L589.035 1034.38L577.059 755.39L593.193 637.276Z" fill="#4C80D9"/>
<path d="M833.228 1068.88L824.034 1313H702.049L697.118 1203.61L675.443 1313H544.7L561.008 1124.95L577.854 1085.4L589.254 1058.6L833.228 1068.88Z" fill="#2F2E41"/>
<path d="M735.639 590.923L650.892 585.783L622.642 621.759L561.008 644.886L589.257 919.841L576.416 1084.3C576.416 1084.3 756.184 1228.2 833.227 1068.88L812.682 876.156L817.819 652.595L758.752 626.895L735.639 590.923Z" fill="#4C81DB"/>
<path d="M898.792 528.379C899.741 536.499 898.734 544.728 895.855 552.379L909.972 636.7L869.679 642.248L859.7 556.12C855.316 549.217 852.649 541.365 851.922 533.22C849.822 512.868 858.611 495.285 871.555 493.947C884.499 492.609 896.694 508.024 898.795 528.376L898.792 528.379Z" fill="#FFB6B6"/>
<path d="M828.61 662.249C814.72 638.493 780.264 636.249 764.832 659.037C760.613 665.265 761.788 672.266 760.781 680.677C756.505 716.387 824.892 821.907 872.212 834.056C878.421 835.65 881.959 842.356 888.226 843.7C892.558 844.63 897.045 844.55 901.341 843.465C905.636 842.38 909.624 840.32 912.995 837.445C916.366 834.57 919.028 830.957 920.777 826.886C922.525 822.815 923.312 818.396 923.077 813.972L910.223 570.6L856.223 589.029L859.679 715.382L828.61 662.249Z" fill="#4C81DE"/>
<path d="M702.06 579.133C716.835 579.142 731.281 574.769 743.571 566.567C755.861 558.365 765.442 546.702 771.102 533.054C776.763 519.406 778.248 504.386 775.371 489.894C772.494 475.401 765.384 462.088 754.939 451.637C744.495 441.186 731.185 434.067 716.695 431.182C702.204 428.296 687.183 429.773 673.531 435.425C659.88 441.077 648.212 450.651 640.002 462.936C631.793 475.22 627.411 489.664 627.411 504.439C627.408 514.245 629.336 523.956 633.086 533.017C636.836 542.077 642.334 550.311 649.266 557.247C656.198 564.183 664.428 569.685 673.486 573.441C682.545 577.196 692.254 579.13 702.06 579.133V579.133Z" fill="#FFB6B6"/>
<path d="M771.593 449.591C770.951 449.745 781.419 439.535 781.865 439.312C792.137 434.173 781.582 484.412 774.165 482.996C755.905 479.527 748.021 472.641 740.933 489.832C738.956 494.611 737.723 500.008 733.871 503.425C728.581 508.076 719.798 507.691 715.483 513.241C712.016 517.713 713.018 524.291 715.583 529.327C718.151 534.39 722.055 538.681 724.392 543.846C727.011 549.654 715.84 568.13 711.577 578.511V578.537L711.552 578.598C710.419 581.321 707.727 573.476 704.885 572.693C701.485 571.756 696.474 579.793 691.058 578.331C691.032 578.331 691.006 578.305 690.981 578.305C685.819 576.866 680.066 575.325 674.365 573.783H674.339C658.289 569.414 654.231 575.683 653.461 575.505L643.496 565.072C640.077 562.58 640.463 554.538 638.052 552.372C636.08 550.606 631.164 554.688 629.715 552.99C622.615 544.664 620.976 536.335 616.788 519.89C612.962 504.857 605.026 459.862 621.334 457.832C636.717 455.905 625.468 434.474 640.954 435.271C640.029 431.365 641.754 427.171 644.549 424.298C647.323 421.398 651.021 419.598 654.749 418.054C673.111 410.554 670.055 404.101 689.418 408.469C691.344 405.769 719.311 407.569 722.804 408.469C723.06 408.52 714.149 410.653 727.94 408.469C727.426 411.63 736.158 413.017 735.64 416.178C737.566 413.578 758.265 428.487 758.753 431.596C759.395 435.476 753.54 433.496 757.443 434.088C759.755 434.448 763.709 439.151 763.324 441.488C764.993 439.227 766.663 436.988 768.358 434.73C768.666 434.756 768.948 434.807 769.258 434.858C777.065 436.349 768.114 461.886 768.436 453.925C769.026 439.304 779.376 447.861 771.595 449.583L771.593 449.591Z" fill="#2F2E41"/>
<path d="M1057.58 847.147C1057.7 847.461 1057.92 847.73 1058.2 847.92C1058.48 848.109 1058.81 848.211 1059.14 848.211C1059.48 848.211 1059.81 848.109 1060.09 847.92C1060.37 847.73 1060.59 847.461 1060.71 847.147C1064.72 837.255 1070.43 826.178 1076.64 817.712C1076.85 817.417 1076.97 817.061 1076.96 816.697C1076.96 816.333 1076.84 815.979 1076.62 815.689C1076.4 815.398 1076.09 815.186 1075.74 815.083C1075.4 814.98 1075.02 814.992 1074.68 815.117L1061.37 819.936V737.484H1056.92V819.936L1043.6 815.117C1043.26 814.992 1042.89 814.98 1042.54 815.083C1042.19 815.186 1041.88 815.398 1041.66 815.689C1041.44 815.979 1041.32 816.332 1041.32 816.696C1041.31 817.06 1041.43 817.416 1041.64 817.711C1047.85 826.177 1053.56 837.255 1057.58 847.147V847.147Z" fill="#3F3D56"/>
<path d="M1144.87 932.043C1144.77 932.366 1144.77 932.71 1144.87 933.032C1144.97 933.354 1145.17 933.639 1145.43 933.849C1145.7 934.059 1146.02 934.185 1146.35 934.211C1146.69 934.236 1147.03 934.16 1147.32 933.993C1156.61 928.742 1167.97 923.62 1178.09 920.855C1178.44 920.757 1178.75 920.549 1178.97 920.262C1179.2 919.975 1179.32 919.623 1179.33 919.26C1179.34 918.896 1179.23 918.54 1179.02 918.242C1178.81 917.944 1178.51 917.721 1178.17 917.606L1164.75 913.096L1216 848.529L1212.51 845.756L1161.26 910.323L1153.83 898.263C1153.64 897.951 1153.36 897.709 1153.02 897.572C1152.68 897.434 1152.31 897.41 1151.96 897.501C1151.6 897.592 1151.29 897.795 1151.06 898.079C1150.83 898.363 1150.7 898.713 1150.69 899.077C1150.29 909.571 1147.87 921.799 1144.87 932.043Z" fill="#3F3D56"/>
<path d="M1103.18 987.066H1016.58C1013.99 987.063 1011.51 986.034 1009.69 984.205C1007.86 982.375 1006.83 979.895 1006.83 977.309C995.379 943.822 995.605 911.009 1006.83 878.831C1006.83 876.245 1007.86 873.765 1009.69 871.936C1011.51 870.107 1013.99 869.077 1016.58 869.074H1103.18C1105.77 869.077 1108.25 870.107 1110.07 871.936C1111.9 873.765 1112.93 876.245 1112.93 878.831V977.309C1112.93 979.895 1111.9 982.375 1110.07 984.205C1108.25 986.034 1105.77 987.063 1103.18 987.066V987.066Z" fill="#E6E6E6"/>
<path d="M1035.13 871.98C1028.39 871.984 1021.93 874.663 1017.17 879.429C1012.4 884.195 1009.73 890.658 1009.73 897.396V975.219C1009.73 976.393 1009.96 977.556 1010.41 978.64C1010.86 979.725 1011.52 980.71 1012.35 981.54C1013.18 982.371 1014.16 983.029 1015.25 983.478C1016.33 983.927 1017.5 984.158 1018.67 984.158H1066.56C1078.09 984.154 1089.15 979.569 1097.3 971.412C1105.45 963.256 1110.03 952.196 1110.03 940.664V880.92C1110.03 879.746 1109.8 878.583 1109.35 877.499C1108.9 876.414 1108.24 875.428 1107.41 874.598C1106.58 873.768 1105.6 873.11 1104.51 872.66C1103.43 872.211 1102.26 871.98 1101.09 871.98H1035.13Z" fill="white"/>
<path d="M1080.05 900.6H1039.5C1039.01 900.6 1038.54 900.405 1038.19 900.057C1037.84 899.709 1037.65 899.237 1037.65 898.746C1037.65 898.254 1037.84 897.782 1038.19 897.434C1038.54 897.086 1039.01 896.891 1039.5 896.891H1080.05C1080.54 896.891 1081.01 897.086 1081.36 897.434C1081.71 897.782 1081.9 898.254 1081.9 898.746C1081.9 899.237 1081.71 899.709 1081.36 900.057C1081.01 900.405 1080.54 900.6 1080.05 900.6V900.6Z" fill="#E6E6E6"/>
<path d="M1080.05 940.155H1039.5C1039.01 940.155 1038.54 939.959 1038.19 939.612C1037.84 939.264 1037.65 938.792 1037.65 938.3C1037.65 937.808 1037.84 937.336 1038.19 936.988C1038.54 936.64 1039.01 936.445 1039.5 936.445H1080.05C1080.54 936.445 1081.01 936.64 1081.36 936.988C1081.71 937.336 1081.91 937.808 1081.91 938.3C1081.91 938.792 1081.71 939.264 1081.36 939.612C1081.01 939.959 1080.54 940.155 1080.05 940.155V940.155Z" fill="#E6E6E6"/>
<path d="M1101.81 920.389H1017.75C1017.5 920.395 1017.26 920.351 1017.03 920.261C1016.8 920.17 1016.59 920.034 1016.41 919.862C1016.23 919.689 1016.09 919.482 1016 919.255C1015.9 919.027 1015.85 918.782 1015.85 918.535C1015.85 918.287 1015.9 918.043 1016 917.815C1016.09 917.587 1016.23 917.381 1016.41 917.208C1016.59 917.035 1016.8 916.899 1017.03 916.809C1017.26 916.718 1017.5 916.674 1017.75 916.68H1101.81C1102.3 916.68 1102.77 916.876 1103.12 917.223C1103.47 917.571 1103.66 918.043 1103.66 918.535C1103.66 919.027 1103.47 919.498 1103.12 919.846C1102.77 920.194 1102.3 920.389 1101.81 920.389Z" fill="#E6E6E6"/>
<path d="M1102.8 956.235H1067.72C1067.23 956.235 1066.76 956.039 1066.41 955.692C1066.06 955.344 1065.86 954.872 1065.86 954.38C1065.86 953.888 1066.06 953.416 1066.41 953.068C1066.76 952.72 1067.23 952.525 1067.72 952.525H1102.8C1103.29 952.525 1103.76 952.72 1104.11 953.068C1104.46 953.416 1104.66 953.888 1104.66 954.38C1104.66 954.872 1104.46 955.344 1104.11 955.692C1103.76 956.039 1103.29 956.235 1102.8 956.235V956.235Z" fill="#E6E6E6"/>
<path d="M317.007 250.528C334.684 250.528 349.014 236.491 349.014 219.176C349.014 201.861 334.684 187.824 317.007 187.824C299.33 187.824 285 201.861 285 219.176C285 236.491 299.33 250.528 317.007 250.528Z" fill="#497BD1"/>
<path d="M573.594 208.451H401.313C398.486 208.424 395.785 207.282 393.796 205.273C391.806 203.265 390.691 200.552 390.691 197.725C390.691 194.899 391.806 192.186 393.796 190.178C395.785 188.169 398.486 187.027 401.313 187H573.594C576.421 187.027 579.122 188.169 581.111 190.178C583.101 192.186 584.216 194.899 584.216 197.725C584.216 200.552 583.101 203.265 581.111 205.273C579.122 207.282 576.421 208.424 573.594 208.451V208.451Z" fill="#F2F2F2"/>
<path d="M708.043 244.754H401.313C398.486 244.727 395.785 243.585 393.796 241.576C391.806 239.568 390.691 236.855 390.691 234.028C390.691 231.202 391.806 228.489 393.796 226.481C395.785 224.472 398.486 223.33 401.313 223.303H708.043C710.87 223.33 713.571 224.472 715.56 226.481C717.55 228.489 718.665 231.202 718.665 234.028C718.665 236.855 717.55 239.568 715.56 241.576C713.571 243.585 710.87 244.727 708.043 244.754V244.754Z" fill="#F2F2F2"/>
<path d="M1077.35 1128.75C1068.85 1158.26 1044.01 1178.91 1018.1 1196.46C1014.48 1198.91 1010.87 1201.31 1007.25 1203.64C1007.22 1203.66 1007.2 1203.68 1007.17 1203.69C1007 1203.8 1006.82 1203.91 1006.66 1204.03C1005.91 1204.51 1005.17 1204.99 1004.42 1205.47L1004.83 1205.65C1004.83 1205.65 1005.23 1205.86 1004.79 1205.68C1004.66 1205.63 1004.53 1205.58 1004.39 1205.52C989.343 1199.45 974.024 1192.94 962.494 1181.56C950.529 1169.76 943.536 1151.23 950.015 1135.72C950.867 1133.69 951.942 1131.76 953.222 1129.96C953.748 1129.21 954.314 1128.49 954.903 1127.79C958.477 1123.42 963.148 1120.09 968.436 1118.13C973.724 1116.18 979.439 1115.66 984.991 1116.64C990.544 1117.63 995.735 1120.07 1000.03 1123.72C1004.33 1127.38 1007.57 1132.11 1009.43 1137.43C1011.33 1119.71 996.721 1104.86 982.658 1093.91C968.595 1082.96 952.602 1071.04 949.882 1053.42C948.363 1043.61 951.773 1034.11 957.982 1026.48C958.174 1026.25 958.366 1026.02 958.564 1025.79C966.125 1016.9 976.76 1011.2 988.344 1009.81C1009.92 1007.57 1030.87 1018.99 1046.54 1033.99C1071.77 1058.12 1087.02 1095.19 1077.35 1128.75Z" fill="#F2F2F2"/>
<path d="M1036.8 1090.15C1040.94 1096.59 1044.12 1103.6 1046.24 1110.96C1048.03 1117.54 1048.83 1124.35 1048.6 1131.16C1048.03 1145.18 1044.09 1158.86 1037.13 1171.04C1031.88 1180.28 1025.49 1188.82 1018.1 1196.46C1014.48 1198.91 1010.87 1201.31 1007.25 1203.64C1007.22 1203.65 1007.2 1203.68 1007.17 1203.69C1007 1203.8 1006.82 1203.91 1006.66 1204.03C1005.91 1204.51 1005.17 1204.99 1004.43 1205.46C1004.43 1205.46 1005.23 1205.87 1004.79 1205.68C1004.66 1205.63 1004.53 1205.58 1004.39 1205.52C1006.5 1188.86 1002.47 1172 993.055 1158.09C983.636 1144.19 969.475 1134.19 953.219 1129.96C953.745 1129.21 954.311 1128.49 954.9 1127.78C959.037 1128.95 963.064 1130.47 966.933 1132.34C980.764 1138.98 992.09 1149.9 999.233 1163.48C1005.64 1175.81 1008.4 1189.71 1007.19 1203.55C1007.81 1202.99 1008.43 1202.42 1009.03 1201.85C1020.46 1191.19 1030.63 1178.95 1037.5 1164.82C1043.46 1152.86 1046.39 1139.61 1046.03 1126.25C1045.47 1111.68 1039.67 1098.19 1031.26 1086.44C1022.05 1073.9 1011.17 1062.69 998.917 1053.1C986.571 1043.22 973.061 1034.87 958.688 1028.27C958.364 1028.12 958.111 1027.85 957.981 1027.51C957.85 1027.18 957.853 1026.81 957.988 1026.48C958.084 1026.18 958.293 1025.93 958.57 1025.79C958.713 1025.73 958.868 1025.7 959.024 1025.71C959.18 1025.71 959.333 1025.75 959.47 1025.83C961.244 1026.65 963.007 1027.47 964.755 1028.34C979.314 1035.53 992.923 1044.51 1005.27 1055.06C1017.19 1065.23 1028.41 1076.84 1036.8 1090.15Z" fill="white"/>
<path d="M954.554 1203.06H1047.77C1048.79 1203.06 1049.8 1203.28 1050.74 1203.7C1051.67 1204.12 1052.5 1204.73 1053.18 1205.5C1053.85 1206.26 1054.36 1207.17 1054.66 1208.14C1054.96 1209.12 1055.05 1210.15 1054.92 1211.17L1043.05 1306.18C1042.83 1307.93 1041.98 1309.53 1040.66 1310.69C1039.35 1311.86 1037.65 1312.5 1035.89 1312.5H966.431C964.674 1312.5 962.978 1311.86 961.661 1310.69C960.344 1309.53 959.496 1307.93 959.276 1306.18L947.4 1211.17C947.273 1210.15 947.363 1209.12 947.665 1208.14C947.967 1207.17 948.473 1206.26 949.149 1205.5C949.826 1204.73 950.658 1204.12 951.59 1203.7C952.523 1203.28 953.533 1203.06 954.556 1203.06H954.554Z" fill="#3F3D56"/>
</g>
<defs>
<clipPath id="clip0_1371_2">
<rect width="1500" height="1500" fill="white"/>
</clipPath>
</defs>
</svg>
