<svg width="1500" height="1500" viewBox="0 0 1500 1500" fill="none" xmlns="http://www.w3.org/2000/svg">
<g clip-path="url(#clip0_1371_47)">
<path d="M1281.96 1132.09H1264.3L1255.9 994.91H1281.96V1132.09Z" fill="#A0616A"/>
<path d="M1251.69 1127.05H1285.74V1148.48H1230.25C1230.25 1142.8 1232.51 1137.34 1236.53 1133.33C1240.55 1129.31 1246.01 1127.05 1251.69 1127.05V1127.05Z" fill="#2F2E41"/>
<path d="M1370.05 1113.54L1353.83 1120.5L1284.21 991.29L1308.15 981.006L1370.05 1113.54Z" fill="#A0616A"/>
<path d="M1340.25 1120.85L1371.53 1107.41L1380 1127.1L1329.02 1149C1326.78 1143.78 1326.7 1137.88 1328.81 1132.6C1330.91 1127.32 1335.03 1123.1 1340.25 1120.85V1120.85Z" fill="#2F2E41"/>
<path d="M1112.9 532.529H806.985C804.568 532.527 802.251 531.566 800.542 529.858C798.833 528.149 797.871 525.833 797.868 523.416V360.116C797.87 357.699 798.832 355.381 800.541 353.672C802.25 351.963 804.568 351.002 806.985 351H1112.9C1115.32 351.004 1117.63 351.966 1119.34 353.674C1121.05 355.382 1122.01 357.697 1122.02 360.113V523.413C1122.01 525.829 1121.05 528.145 1119.34 529.852C1117.63 531.56 1115.32 532.522 1112.9 532.526V532.529Z" fill="#B6B0B0"/>
<path d="M859.233 465.276C865.882 465.273 872.381 463.298 877.908 459.602C883.435 455.906 887.742 450.653 890.284 444.51C892.827 438.366 893.49 431.606 892.191 425.085C890.892 418.564 887.688 412.574 882.985 407.874C878.282 403.173 872.291 399.973 865.77 398.677C859.248 397.381 852.489 398.048 846.346 400.593C840.203 403.139 834.953 407.448 831.26 412.977C827.566 418.506 825.595 425.006 825.595 431.655C825.596 436.072 826.467 440.444 828.158 444.524C829.849 448.604 832.327 452.311 835.451 455.433C838.574 458.555 842.282 461.031 846.363 462.72C850.443 464.409 854.817 465.277 859.233 465.276V465.276Z" fill="white"/>
<path d="M1075.83 401.549H938.494C937.813 401.559 937.137 401.433 936.505 401.179C935.873 400.924 935.297 400.547 934.812 400.069C934.327 399.591 933.942 399.021 933.679 398.392C933.417 397.764 933.281 397.09 933.281 396.409C933.281 395.727 933.417 395.053 933.679 394.425C933.942 393.796 934.327 393.226 934.812 392.748C935.297 392.27 935.873 391.893 936.505 391.639C937.137 391.385 937.813 391.259 938.494 391.268H1075.83C1076.51 391.259 1077.19 391.385 1077.82 391.639C1078.45 391.893 1079.03 392.27 1079.51 392.748C1080 393.226 1080.38 393.796 1080.64 394.425C1080.91 395.053 1081.04 395.727 1081.04 396.409C1081.04 397.09 1080.91 397.764 1080.64 398.392C1080.38 399.021 1080 399.591 1079.51 400.069C1079.03 400.547 1078.45 400.924 1077.82 401.179C1077.19 401.433 1076.51 401.559 1075.83 401.549Z" fill="white"/>
<path d="M1003.94 425.049H938.494C937.813 425.059 937.137 424.933 936.505 424.679C935.873 424.424 935.297 424.047 934.812 423.569C934.327 423.091 933.942 422.521 933.679 421.892C933.417 421.264 933.281 420.59 933.281 419.909C933.281 419.227 933.417 418.553 933.679 417.925C933.942 417.296 934.327 416.726 934.812 416.248C935.297 415.77 935.873 415.393 936.505 415.139C937.137 414.885 937.813 414.759 938.494 414.768H1003.94C1005.29 414.787 1006.58 415.337 1007.53 416.299C1008.48 417.261 1009.01 418.558 1009.01 419.909C1009.01 421.26 1008.48 422.556 1007.53 423.518C1006.58 424.48 1005.29 425.03 1003.94 425.049V425.049Z" fill="white"/>
<path d="M1050.03 448.539H938.494C937.813 448.548 937.137 448.422 936.505 448.168C935.873 447.914 935.297 447.537 934.812 447.059C934.327 446.581 933.942 446.011 933.679 445.382C933.417 444.754 933.281 444.079 933.281 443.398C933.281 442.717 933.417 442.043 933.679 441.414C933.942 440.786 934.327 440.216 934.812 439.738C935.297 439.26 935.873 438.882 936.505 438.628C937.137 438.374 937.813 438.248 938.494 438.258H1050.03C1051.38 438.277 1052.67 438.827 1053.62 439.789C1054.57 440.751 1055.1 442.047 1055.1 443.398C1055.1 444.749 1054.57 446.046 1053.62 447.008C1052.67 447.97 1051.38 448.52 1050.03 448.539V448.539Z" fill="white"/>
<path d="M1075.83 472.029H938.494C937.813 472.039 937.137 471.913 936.505 471.659C935.873 471.404 935.297 471.027 934.812 470.549C934.327 470.071 933.942 469.501 933.679 468.873C933.417 468.244 933.281 467.57 933.281 466.889C933.281 466.207 933.417 465.533 933.679 464.905C933.942 464.276 934.327 463.706 934.812 463.228C935.297 462.75 935.873 462.373 936.505 462.119C937.137 461.865 937.813 461.739 938.494 461.748H1075.83C1076.51 461.739 1077.19 461.865 1077.82 462.119C1078.45 462.373 1079.03 462.75 1079.51 463.228C1080 463.706 1080.38 464.276 1080.64 464.905C1080.91 465.533 1081.04 466.207 1081.04 466.889C1081.04 467.57 1080.91 468.244 1080.64 468.873C1080.38 469.501 1080 470.071 1079.51 470.549C1079.03 471.027 1078.45 471.404 1077.82 471.659C1077.19 471.913 1076.51 472.039 1075.83 472.029V472.029Z" fill="white"/>
<path d="M1071.53 514.528H1048.79C1047.55 514.53 1046.32 514.287 1045.17 513.814C1044.02 513.341 1042.98 512.646 1042.1 511.769C1041.23 510.888 1040.53 509.848 1040.05 508.704C1039.57 507.558 1039.33 506.329 1039.33 505.088C1039.33 503.847 1039.57 502.618 1040.05 501.472C1040.53 500.325 1041.22 499.284 1042.1 498.407C1042.98 497.53 1044.02 496.835 1045.17 496.362C1046.32 495.889 1047.55 495.646 1048.79 495.648H1071.53C1074.03 495.648 1076.43 496.643 1078.21 498.413C1079.98 500.183 1080.97 502.584 1080.97 505.088C1080.97 507.592 1079.98 509.993 1078.21 511.763C1076.43 513.533 1074.03 514.528 1071.53 514.528V514.528Z" fill="white"/>
<path d="M657.905 547.738H444.305C442.618 547.736 441 547.065 439.807 545.873C438.613 544.68 437.942 543.063 437.939 541.375V427.353C437.942 425.666 438.613 424.049 439.807 422.856C441 421.663 442.618 420.992 444.305 420.99H657.905C659.592 420.992 661.21 421.662 662.404 422.855C663.597 424.048 664.269 425.666 664.271 427.353V541.375C664.269 543.063 663.597 544.68 662.404 545.873C661.21 547.066 659.592 547.737 657.905 547.738Z" fill="#B6B0B0"/>
<path d="M480.79 500.781C485.432 500.778 489.97 499.399 493.828 496.818C497.687 494.237 500.694 490.57 502.469 486.28C504.243 481.991 504.707 477.271 503.8 472.718C502.893 468.166 500.656 463.984 497.373 460.702C494.09 457.42 489.907 455.185 485.354 454.28C480.801 453.375 476.081 453.84 471.792 455.616C467.503 457.393 463.837 460.401 461.258 464.26C458.678 468.12 457.301 472.658 457.3 477.3C457.3 480.384 457.908 483.439 459.088 486.288C460.269 489.137 461.999 491.726 464.181 493.907C466.362 496.087 468.952 497.817 471.802 498.996C474.651 500.176 477.706 500.782 480.79 500.781V500.781Z" fill="white"/>
<path d="M632.026 456.284H536.132C535.18 456.284 534.267 455.906 533.594 455.233C532.921 454.559 532.542 453.646 532.542 452.694C532.542 451.742 532.921 450.829 533.594 450.156C534.267 449.483 535.18 449.105 536.132 449.105H632.026C632.978 449.105 633.891 449.483 634.564 450.156C635.237 450.829 635.615 451.742 635.615 452.694C635.615 453.646 635.237 454.559 634.564 455.233C633.891 455.906 632.978 456.284 632.026 456.284V456.284Z" fill="white"/>
<path d="M581.825 472.694H536.132C535.18 472.694 534.267 472.316 533.594 471.643C532.921 470.97 532.543 470.057 532.543 469.105C532.543 468.153 532.921 467.24 533.594 466.567C534.267 465.894 535.18 465.516 536.132 465.516H581.825C582.777 465.516 583.69 465.894 584.363 466.567C585.036 467.24 585.414 468.153 585.414 469.105C585.414 470.057 585.036 470.97 584.363 471.643C583.69 472.316 582.777 472.694 581.825 472.694V472.694Z" fill="white"/>
<path d="M614.006 489.1H536.132C535.191 489.084 534.293 488.699 533.632 488.028C532.972 487.356 532.602 486.452 532.602 485.51C532.602 484.569 532.972 483.665 533.632 482.993C534.293 482.322 535.191 481.937 536.132 481.921H614.006C614.948 481.937 615.845 482.322 616.506 482.993C617.166 483.665 617.536 484.569 617.536 485.51C617.536 486.452 617.166 487.356 616.506 488.028C615.845 488.699 614.948 489.084 614.006 489.1V489.1Z" fill="white"/>
<path d="M632.026 505.5H536.132C535.191 505.484 534.293 505.099 533.632 504.428C532.972 503.756 532.602 502.852 532.602 501.91C532.602 500.969 532.972 500.064 533.632 499.393C534.293 498.722 535.191 498.337 536.132 498.321H632.026C632.503 498.313 632.976 498.4 633.418 498.577C633.861 498.753 634.264 499.017 634.603 499.351C634.943 499.685 635.213 500.083 635.397 500.523C635.581 500.962 635.676 501.434 635.676 501.91C635.676 502.387 635.581 502.859 635.397 503.298C635.213 503.737 634.943 504.136 634.603 504.47C634.264 504.804 633.861 505.067 633.418 505.244C632.976 505.421 632.503 505.508 632.026 505.5V505.5Z" fill="white"/>
<path d="M629.023 535.17H613.145C611.397 535.17 609.72 534.475 608.484 533.239C607.248 532.003 606.554 530.327 606.554 528.579C606.554 526.831 607.248 525.154 608.484 523.918C609.72 522.682 611.397 521.988 613.145 521.988H629.023C630.771 521.988 632.447 522.682 633.683 523.918C634.92 525.154 635.614 526.831 635.614 528.579C635.614 530.327 634.92 532.003 633.683 533.239C632.447 534.475 630.771 535.17 629.023 535.17V535.17Z" fill="white"/>
<path d="M1023.28 724.3H623.865C620.71 724.296 617.686 723.041 615.455 720.81C613.224 718.579 611.969 715.555 611.965 712.4V499.187C611.969 496.032 613.224 493.008 615.455 490.777C617.686 488.546 620.71 487.291 623.865 487.287H1023.28C1026.44 487.288 1029.46 488.542 1031.7 490.773C1033.93 493.004 1035.19 496.03 1035.19 499.187V712.405C1035.19 715.562 1033.93 718.588 1031.7 720.819C1029.46 723.05 1026.44 724.304 1023.28 724.305V724.3Z" fill="#5487DE"/>
<path d="M692.083 636.493C700.765 636.489 709.251 633.911 716.467 629.085C723.684 624.259 729.308 617.402 732.628 609.38C735.948 601.358 736.814 592.531 735.118 584.017C733.422 575.502 729.24 567.682 723.099 561.544C716.959 555.407 709.137 551.227 700.622 549.535C692.106 547.843 683.28 548.713 675.26 552.036C667.239 555.36 660.384 560.986 655.561 568.205C650.738 575.424 648.164 583.911 648.164 592.593C648.165 598.359 649.302 604.069 651.51 609.396C653.718 614.723 656.953 619.562 661.031 623.639C665.11 627.715 669.951 630.949 675.279 633.154C680.607 635.36 686.317 636.494 692.083 636.493V636.493Z" fill="white"/>
<path d="M974.888 553.287H795.571C793.791 553.287 792.084 552.58 790.825 551.321C789.566 550.062 788.859 548.355 788.859 546.575C788.859 544.795 789.566 543.087 790.825 541.829C792.084 540.57 793.791 539.863 795.571 539.863H974.888C976.668 539.863 978.375 540.57 979.634 541.829C980.893 543.087 981.6 544.795 981.6 546.575C981.6 548.355 980.893 550.062 979.634 551.321C978.375 552.58 976.668 553.287 974.888 553.287V553.287Z" fill="white"/>
<path d="M881.014 583.971H795.571C794.689 583.971 793.817 583.797 793.002 583.46C792.188 583.123 791.448 582.628 790.825 582.005C790.202 581.382 789.707 580.642 789.37 579.827C789.033 579.013 788.859 578.14 788.859 577.259C788.859 576.377 789.033 575.505 789.37 574.69C789.707 573.876 790.202 573.136 790.825 572.513C791.448 571.889 792.188 571.395 793.002 571.058C793.817 570.72 794.689 570.547 795.571 570.547H881.014C881.895 570.547 882.768 570.72 883.582 571.058C884.397 571.395 885.137 571.889 885.76 572.513C886.383 573.136 886.878 573.876 887.215 574.69C887.552 575.505 887.726 576.377 887.726 577.259C887.726 578.14 887.552 579.013 887.215 579.827C886.878 580.642 886.383 581.382 885.76 582.005C885.137 582.628 884.397 583.123 883.582 583.46C882.768 583.797 881.895 583.971 881.014 583.971V583.971Z" fill="white"/>
<path d="M941.192 614.641H795.571C793.791 614.641 792.084 613.934 790.825 612.675C789.566 611.416 788.859 609.709 788.859 607.929C788.859 606.149 789.566 604.441 790.825 603.183C792.084 601.924 793.791 601.217 795.571 601.217H941.192C942.972 601.217 944.679 601.924 945.938 603.183C947.197 604.441 947.904 606.149 947.904 607.929C947.904 609.709 947.197 611.416 945.938 612.675C944.679 613.934 942.972 614.641 941.192 614.641Z" fill="white"/>
<path d="M974.888 645.311H795.571C793.791 645.311 792.084 644.604 790.825 643.345C789.566 642.087 788.859 640.379 788.859 638.599C788.859 636.819 789.566 635.112 790.825 633.853C792.084 632.594 793.791 631.887 795.571 631.887H974.888C976.668 631.887 978.375 632.594 979.634 633.853C980.893 635.112 981.6 636.819 981.6 638.599C981.6 640.379 980.893 642.087 979.634 643.345C978.375 644.604 976.668 645.311 974.888 645.311Z" fill="white"/>
<path d="M969.273 700.8H939.582C936.313 700.8 933.178 699.501 930.867 697.19C928.556 694.879 927.257 691.744 927.257 688.475C927.257 685.206 928.556 682.071 930.867 679.76C933.178 677.448 936.313 676.15 939.582 676.15H969.273C972.542 676.15 975.677 677.448 977.988 679.76C980.3 682.071 981.598 685.206 981.598 688.475C981.598 691.744 980.3 694.879 977.988 697.19C975.677 699.501 972.542 700.8 969.273 700.8V700.8Z" fill="white"/>
<path d="M1372.65 995.122C1372.65 995.122 1337.65 816.759 1332.13 801.722C1329.09 793.505 1327.09 787.528 1327.09 787.528L1224.24 793.407L1223.4 801.722L1209.53 1010.32C1209.53 1010.32 1214.43 997.07 1218.83 994.634C1223.23 992.198 1222.77 1010.3 1222.77 1010.3" fill="#2F2E41"/>
<path d="M1225.02 793.337H1315.05C1312.52 784.296 1315.05 775.916 1318.66 769.488C1321.18 764.971 1324.36 760.851 1328.08 757.259L1328.7 756.706L1360.15 749.736L1361.85 749.367C1361.85 749.367 1362.1 692.248 1341.87 684.41C1330.76 680.165 1320.32 674.336 1310.87 667.103C1309.94 666.368 1308.8 665.951 1307.61 665.912L1263.46 664.296C1262.1 664.249 1260.77 664.696 1259.72 665.553C1252.42 671.42 1229.2 683.197 1216.72 689.353C1214.53 690.434 1212.84 692.317 1212 694.611C1211.16 696.905 1211.24 699.434 1212.21 701.674C1217.2 713.113 1225.66 732.245 1226.55 732.245C1227.82 732.25 1225.02 793.337 1225.02 793.337Z" fill="#4F82DB"/>
<path d="M1286.06 700.7L1328.36 810.045C1328.36 810.045 1299.76 816.637 1272.17 782.936L1262.22 761.216L1239.79 678.435L1286.06 700.7Z" fill="#F6F8FB"/>
<path d="M1297.29 642.159C1308.64 642.153 1319.73 638.783 1329.17 632.473C1338.6 626.163 1345.95 617.198 1350.29 606.711C1354.63 596.223 1355.77 584.684 1353.55 573.553C1351.33 562.422 1345.86 552.199 1337.83 544.175C1329.81 536.151 1319.58 530.688 1308.45 528.476C1297.32 526.264 1285.78 527.402 1275.29 531.746C1264.81 536.091 1255.85 543.447 1249.54 552.885C1243.24 562.322 1239.87 573.417 1239.87 584.767C1239.87 599.992 1245.93 614.592 1256.69 625.355C1267.46 636.118 1282.07 642.162 1297.29 642.159V642.159Z" fill="#2F2E41"/>
<path d="M1260.86 777.057C1262.43 779.024 1264.6 780.433 1267.03 781.075C1269.47 781.717 1272.04 781.558 1274.38 780.622L1305.15 792.654L1315.4 769.492L1280.73 765.018C1280.06 763.494 1279.07 762.131 1277.83 761.02C1276.59 759.908 1275.12 759.075 1273.53 758.574C1271.94 758.073 1270.27 757.917 1268.61 758.116C1266.96 758.315 1265.37 758.865 1263.94 759.728C1262.52 760.591 1261.29 761.748 1260.35 763.122C1259.41 764.496 1258.77 766.055 1258.48 767.695C1258.19 769.335 1258.25 771.018 1258.66 772.633C1259.07 774.247 1259.82 775.755 1260.86 777.057V777.057Z" fill="#A0616A"/>
<path d="M1288.58 655.993C1295.84 655.989 1302.94 653.831 1308.98 649.793C1315.02 645.755 1319.72 640.017 1322.5 633.305C1325.28 626.594 1326 619.209 1324.58 612.086C1323.16 604.963 1319.66 598.42 1314.52 593.285C1309.39 588.151 1302.84 584.655 1295.72 583.239C1288.59 581.824 1281.21 582.552 1274.5 585.333C1267.79 588.114 1262.05 592.821 1258.02 598.861C1253.98 604.9 1251.83 612.001 1251.83 619.264C1251.83 624.089 1252.78 628.866 1254.63 633.323C1256.48 637.78 1259.18 641.83 1262.6 645.241C1266.01 648.651 1270.06 651.356 1274.52 653.201C1278.98 655.046 1283.76 655.995 1288.58 655.993Z" fill="#A0616A"/>
<path d="M1340.26 594.937C1320.72 605.571 1298.72 610.882 1276.48 610.337C1267.96 610.116 1258.57 608.567 1253.17 601.973C1247.09 594.533 1248.61 582.908 1254.48 575.297C1260.35 567.686 1269.54 563.397 1278.71 560.485C1287.38 557.731 1296.67 555.958 1305.56 557.885C1310.25 558.897 1314.67 560.908 1318.52 563.782C1322.37 566.656 1325.55 570.325 1327.85 574.539C1330.15 578.753 1331.51 583.414 1331.85 588.203C1332.19 592.993 1331.49 597.798 1329.8 602.293" fill="#2F2E41"/>
<path d="M1337.9 576.368C1344.27 576.366 1350.49 574.476 1355.79 570.936C1361.08 567.397 1365.21 562.367 1367.64 556.483C1370.08 550.599 1370.71 544.125 1369.47 537.88C1368.23 531.634 1365.16 525.898 1360.66 521.395C1356.15 516.893 1350.41 513.827 1344.17 512.586C1337.92 511.344 1331.45 511.982 1325.57 514.42C1319.68 516.857 1314.65 520.984 1311.12 526.279C1307.58 531.574 1305.69 537.8 1305.69 544.168C1305.69 548.397 1306.52 552.585 1308.14 556.493C1309.76 560.4 1312.13 563.95 1315.12 566.94C1318.12 569.93 1321.67 572.302 1325.57 573.92C1329.48 575.537 1333.67 576.369 1337.9 576.368V576.368Z" fill="#2F2E41"/>
<path d="M1349.44 734.191L1361.84 749.368L1364.36 790.568C1364.36 790.568 1367.62 811.545 1343.62 806.493C1319.62 801.441 1288.76 791.617 1288.76 791.617C1288.76 791.617 1305.19 767.817 1297.85 760.995L1332.25 772.117C1332.25 772.117 1338.06 770.849 1333.51 765.797C1328.96 760.745 1328.15 751.639 1328.15 751.639L1349.44 734.191Z" fill="#5183DB"/>
<path d="M1285.78 769.856C1283.39 770.656 1280.81 770.666 1278.42 769.885C1276.02 769.104 1273.95 767.573 1272.49 765.519L1240.12 758.946L1244.08 733.932L1275.62 748.968C1277.72 747.589 1280.21 746.921 1282.71 747.061C1285.22 747.201 1287.62 748.143 1289.55 749.748C1290.83 750.81 1291.87 752.136 1292.59 753.634C1293.32 755.131 1293.72 756.767 1293.77 758.432C1293.81 760.097 1293.51 761.752 1292.86 763.288C1292.22 764.824 1291.25 766.204 1290.03 767.337C1288.81 768.469 1287.36 769.328 1285.78 769.856V769.856Z" fill="#A0616A"/>
<path d="M1243.06 712.016C1243.06 712.016 1237.44 719.23 1230.87 721.004C1224.3 722.778 1228.5 726.995 1228.5 726.995L1263.43 736.302C1253.57 738.054 1254.45 766.96 1254.45 766.96C1254.45 766.96 1223.18 758.469 1200.28 749.703C1177.38 740.937 1191.51 725.08 1191.51 725.08L1215.99 691.845L1234.64 685.818L1243.06 712.016Z" fill="#5084DE"/>
<path d="M172.015 1104.66L188.867 1111.9L224.822 1050.37L199.95 1039.69L172.015 1104.66Z" fill="#FFB8B8"/>
<path d="M214.642 1141.5L161.678 1118.75L170.478 1098.3L203.743 1112.59C206.329 1113.7 208.672 1115.31 210.636 1117.32C212.601 1119.34 214.149 1121.72 215.192 1124.34C216.235 1126.95 216.753 1129.75 216.716 1132.56C216.679 1135.37 216.088 1138.15 214.976 1140.74L214.647 1141.5H214.642Z" fill="#2F2E41"/>
<path d="M288.258 1125.39H306.6L315.329 1054.67H288.258V1125.39Z" fill="#FFB8B8"/>
<path d="M341.975 1142.41H284.328V1120.15H320.535C326.22 1120.15 331.671 1122.41 335.692 1126.43C339.712 1130.44 341.972 1135.9 341.975 1141.58V1142.41V1142.41Z" fill="#2F2E41"/>
<g opacity="0.1">
<path opacity="0.1" d="M176.594 585.875L177.631 586.099C177.328 585.891 176.956 585.811 176.594 585.875V585.875Z" fill="white"/>
</g>
<path d="M319.237 1062.07L277.045 1063.74C266.745 1056.82 234.767 893.309 234.767 893.309C234.985 894.575 230.767 1055.6 230.767 1055.6H185.373L163.073 804.5L187.688 814.406C187.688 814.406 300.399 805.271 305.651 811.771C306.756 813.893 319.237 1062.07 319.237 1062.07Z" fill="#2F2E41"/>
<path d="M224.217 626.6C231.48 626.597 238.58 624.439 244.617 620.401C250.655 616.364 255.36 610.626 258.137 603.914C260.914 597.203 261.639 589.818 260.22 582.695C258.801 575.571 255.302 569.029 250.164 563.894C245.027 558.759 238.483 555.263 231.358 553.847C224.234 552.431 216.85 553.159 210.14 555.939C203.43 558.72 197.694 563.427 193.659 569.467C189.624 575.506 187.47 582.607 187.47 589.87C187.471 594.695 188.422 599.472 190.27 603.929C192.117 608.386 194.824 612.435 198.236 615.846C201.649 619.257 205.699 621.962 210.157 623.807C214.615 625.652 219.392 626.601 224.217 626.6V626.6Z" fill="#FFB8B8"/>
<path d="M286.484 879.815C284.901 877.734 284.03 875.197 284.001 872.582C283.972 869.967 284.787 867.412 286.324 865.296L282.008 831.269L307.953 826.83L303.662 862.864C305.025 863.929 306.144 865.273 306.947 866.805C307.749 868.337 308.215 870.022 308.315 871.749C308.415 873.476 308.145 875.203 307.524 876.818C306.903 878.432 305.945 879.895 304.714 881.11C303.483 882.324 302.007 883.263 300.385 883.862C298.763 884.462 297.031 884.708 295.306 884.586C293.581 884.463 291.902 883.974 290.381 883.152C288.859 882.329 287.531 881.192 286.484 879.815V879.815Z" fill="#FFB8B8"/>
<path d="M229.784 565.234L230.594 565.409C230.356 565.25 230.066 565.187 229.784 565.234V565.234Z" fill="#E1E7EF"/>
<path d="M212.417 576.1C220.417 577.847 228.559 579.513 236.73 578.97C244.901 578.427 253.235 575.403 258.541 569.17C263.847 562.937 265.315 553.146 260.605 546.45C255.005 538.488 243.776 537.533 234.04 537.331L203.364 536.696C197.303 536.57 190.943 536.511 185.575 539.327C176.249 544.219 173.029 556.102 173.216 566.627C173.463 576.694 175.885 586.588 180.316 595.63C184.747 604.673 191.081 612.65 198.885 619.014C203.036 622.354 209.871 624.893 213.036 620.608C214.416 618.739 200.944 597.233 200.905 594.908C200.679 581.408 213.943 586.908 213.717 573.408" fill="#2F2E41"/>
<path d="M177 813.763C211.969 841.097 250.567 854.875 294.26 849.624C275.806 784.863 270.333 720.592 288.134 657.201L251.381 640.583L201.502 637.959L171.476 646.786C167.254 648.029 163.557 650.625 160.955 654.175C158.353 657.725 156.99 662.032 157.076 666.433C158.138 720.494 163.108 771.087 177 813.763Z" fill="#E6E6E6"/>
<path d="M287.263 854.873L310.015 857.497L304.688 688.631C304.449 681.084 302.041 673.766 297.753 667.552C293.465 661.337 287.478 656.489 280.507 653.587L272.387 650.205L274.575 729.361L287.263 854.873Z" fill="#E6E6E6"/>
<path d="M175.74 843.483C173.461 842.199 171.657 840.215 170.594 837.824C169.531 835.434 169.267 832.765 169.84 830.213L152.404 800.672L174.473 786.332L184.8 821.121C186.473 821.56 188.033 822.35 189.376 823.439C190.719 824.528 191.814 825.891 192.589 827.437C193.364 828.983 193.8 830.677 193.869 832.405C193.938 834.132 193.637 835.855 192.988 837.458C192.338 839.06 191.354 840.506 190.102 841.698C188.85 842.891 187.357 843.803 185.725 844.373C184.092 844.943 182.357 845.158 180.635 845.005C178.912 844.852 177.242 844.333 175.736 843.483H175.74Z" fill="#FFB8B8"/>
<path d="M166.5 830.383L187.8 814.683L164.748 746.42L173.062 646.273C155.003 651.945 135.613 667.184 132.419 685.833L121 752.539L166.5 830.383Z" fill="#E6E6E6"/>
<path opacity="0.2" d="M175.514 730.338L166.137 767.822L187.414 821.013L171.186 770.705L175.514 730.338Z" fill="black"/>
<path opacity="0.2" d="M268.381 749.77L275.618 830.092L263.363 750.329L268.381 749.77Z" fill="black"/>
<path d="M845.433 996.646C862.164 996.638 875.721 982.765 875.713 965.661C875.712 961.54 874.904 957.459 873.335 953.648L868.871 955.571C871.511 961.898 871.57 969.008 869.033 975.378C866.497 981.748 861.568 986.871 855.301 989.652C852.258 990.965 848.984 991.659 845.671 991.692C842.357 991.726 839.07 991.098 836.001 989.847L834.201 994.447C837.766 995.905 841.581 996.652 845.433 996.646V996.646Z" fill="#2F2E41"/>
<path d="M798.801 996.027H836.349V986.127L806.069 977.459L798.801 996.027Z" fill="#2F2E41"/>
<path d="M812.125 986.122H712.804C712.744 991.644 714.879 996.963 718.741 1000.91C722.602 1004.86 727.873 1007.11 733.395 1007.17H791.533C797.055 1007.11 802.326 1004.86 806.187 1000.91C810.048 996.963 812.184 991.644 812.124 986.122H812.125Z" fill="#2F2E41"/>
<path d="M703.441 998.643H813.661C817.602 998.643 821.382 997.078 824.169 994.291C826.955 991.504 828.521 987.725 828.521 983.783C828.521 979.842 826.955 976.063 824.169 973.276C821.382 970.489 817.602 968.923 813.661 968.923H703.441C699.5 968.923 695.72 970.489 692.933 973.276C690.147 976.063 688.581 979.842 688.581 983.783C688.581 987.725 690.147 991.504 692.933 994.291C695.72 997.078 699.5 998.643 703.441 998.643V998.643Z" fill="#CACACA"/>
<path d="M869.377 967.69C875.546 967.614 881.433 965.095 885.747 960.685C890.062 956.275 892.45 950.333 892.39 944.164V811.677C892.39 808.655 891.795 805.662 890.638 802.869C889.481 800.077 887.786 797.54 885.649 795.402C883.512 793.265 880.974 791.57 878.182 790.413C875.39 789.256 872.397 788.661 869.374 788.661C866.352 788.661 863.359 789.256 860.566 790.413C857.774 791.57 855.237 793.265 853.099 795.402C850.962 797.54 849.267 800.077 848.11 802.869C846.953 805.662 846.358 808.655 846.358 811.677L846.364 944.165C846.304 950.334 848.693 956.276 853.007 960.686C857.321 965.096 863.208 967.615 869.377 967.691V967.69Z" fill="#CACACA"/>
<path d="M724.917 1123.02H752.775V1001.74H762.465V1123.02H790.323C794.546 1123.07 798.577 1124.79 801.53 1127.81C804.483 1130.83 806.116 1134.9 806.069 1139.12H709.169C709.146 1137.03 709.535 1134.95 710.313 1133.01C711.092 1131.07 712.246 1129.3 713.708 1127.81C715.171 1126.31 716.913 1125.12 718.836 1124.3C720.76 1123.48 722.826 1123.04 724.917 1123.02V1123.02Z" fill="#2F2E41"/>
</g>
<defs>
<clipPath id="clip0_1371_47">
<rect width="1500" height="1500" fill="white"/>
</clipPath>
</defs>
</svg>
