<svg width="246" height="246" viewBox="0 0 246 246" fill="none" xmlns="http://www.w3.org/2000/svg">
<mask id="mask0_429_929" style="mask-type:alpha" maskUnits="userSpaceOnUse" x="0" y="0" width="246" height="246">
<path d="M0 0L246 0V246H0L0 0Z" fill="#D9D9D9"/>
</mask>
<g mask="url(#mask0_429_929)">
<path d="M187.5 115.741C171.425 115.741 157.761 110.114 146.508 98.8619C135.256 87.6093 129.63 73.9455 129.63 57.8704C129.63 41.7953 135.256 28.1314 146.508 16.8789C157.761 5.6263 171.425 0 187.5 0C203.575 0 217.239 5.6263 228.491 16.8789C239.744 28.1314 245.37 41.7953 245.37 57.8704C245.37 73.9455 239.744 87.6093 228.491 98.8619C217.239 110.114 203.575 115.741 187.5 115.741Z" fill="#0090C5"/>
<path d="M187.5 245.37C171.425 245.37 157.761 239.743 146.508 228.491C135.256 217.238 129.63 203.574 129.63 187.499C129.63 171.424 135.256 157.76 146.508 146.508C157.761 135.255 171.425 129.629 187.5 129.629C203.575 129.629 217.239 135.255 228.491 146.508C239.744 157.76 245.37 171.424 245.37 187.499C245.37 203.574 239.744 217.238 228.491 228.491C217.239 239.743 203.575 245.37 187.5 245.37Z" fill="#64C3D5"/>
<path d="M57.8704 115.741C41.7953 115.741 28.1314 110.114 16.8789 98.8619C5.6263 87.6093 0 73.9455 0 57.8704C0 41.7953 5.6263 28.1314 16.8789 16.8789C28.1314 5.6263 41.7953 0 57.8704 0C73.9455 0 87.6093 5.6263 98.8619 16.8789C110.114 28.1314 115.741 41.7953 115.741 57.8704C115.741 73.9455 110.114 87.6093 98.8619 98.8619C87.6093 110.114 73.9455 115.741 57.8704 115.741Z" fill="#00579D"/>
<path d="M57.8704 245.37C41.7953 245.37 28.1314 239.743 16.8789 228.491C5.6263 217.238 0 203.574 0 187.499C0 171.424 5.6263 157.76 16.8789 146.508C28.1314 135.255 41.7953 129.629 57.8704 129.629C73.9455 129.629 87.6093 135.255 98.8619 146.508C110.114 157.76 115.741 171.424 115.741 187.499C115.741 203.574 110.114 217.238 98.8619 228.491C87.6093 239.743 73.9455 245.37 57.8704 245.37Z" fill="#448DCA"/>
</g>
</svg>
