<svg width="1500" height="1500" viewBox="0 0 1500 1500" fill="none" xmlns="http://www.w3.org/2000/svg">
<g clip-path="url(#clip0_1371_114)">
<path d="M1210.91 1044.31H423.91C416.9 1044.3 410.179 1041.52 405.221 1036.56C400.262 1031.61 397.471 1024.89 397.46 1017.88V377.559C397.471 370.549 400.262 363.83 405.221 358.876C410.179 353.922 416.9 351.136 423.91 351.131H1210.91C1217.92 351.137 1224.64 353.922 1229.6 358.877C1234.56 363.831 1237.35 370.549 1237.36 377.559V1017.88C1237.35 1024.89 1234.56 1031.61 1229.6 1036.56C1224.64 1041.52 1217.92 1044.3 1210.91 1044.31Z" fill="#B6B0B0"/>
<path d="M1134.44 1026.48H441.756C434.747 1026.47 428.026 1023.69 423.067 1018.73C418.109 1013.78 415.318 1007.06 415.307 1000.05V395.4C415.318 388.391 418.109 381.672 423.067 376.717C428.026 371.763 434.747 368.977 441.756 368.972H1193.07C1200.08 368.978 1206.8 371.764 1211.76 376.718C1216.72 381.672 1219.51 388.391 1219.52 395.4V941.47C1219.49 964.018 1210.51 985.631 1194.56 1001.57C1178.61 1017.5 1156.99 1026.46 1134.44 1026.48V1026.48Z" fill="#C3BBBB"/>
<path d="M944.093 505.692H627.781C625.973 505.692 624.24 504.974 622.962 503.696C621.683 502.418 620.965 500.684 620.965 498.877C620.965 497.069 621.683 495.335 622.962 494.057C624.24 492.779 625.973 492.061 627.781 492.061H944.093C945.9 492.061 947.634 492.779 948.912 494.057C950.19 495.335 950.908 497.069 950.908 498.877C950.908 500.684 950.19 502.418 948.912 503.696C947.634 504.974 945.9 505.692 944.093 505.692V505.692Z" fill="#4A6FE0"/>
<path d="M1104.22 578.415H627.781C626.886 578.415 625.999 578.239 625.172 577.896C624.345 577.554 623.594 577.052 622.961 576.419C622.328 575.786 621.826 575.035 621.484 574.208C621.141 573.381 620.965 572.494 620.965 571.599C620.965 570.704 621.141 569.818 621.484 568.991C621.826 568.164 622.328 567.412 622.961 566.78C623.594 566.147 624.345 565.645 625.172 565.302C625.999 564.959 626.886 564.783 627.781 564.783H1104.22C1105.11 564.783 1106 564.959 1106.83 565.302C1107.66 565.645 1108.41 566.147 1109.04 566.78C1109.67 567.412 1110.17 568.164 1110.52 568.991C1110.86 569.818 1111.04 570.704 1111.04 571.599C1111.04 572.494 1110.86 573.381 1110.52 574.208C1110.17 575.035 1109.67 575.786 1109.04 576.419C1108.41 577.052 1107.66 577.554 1106.83 577.896C1106 578.239 1105.11 578.415 1104.22 578.415V578.415Z" fill="#E6E6E6"/>
<path d="M1104.22 651.136H627.781C626.886 651.136 625.999 650.96 625.172 650.617C624.345 650.275 623.594 649.772 622.961 649.14C622.328 648.507 621.826 647.755 621.484 646.928C621.141 646.101 620.965 645.215 620.965 644.32C620.965 643.425 621.141 642.538 621.484 641.711C621.826 640.885 622.328 640.133 622.961 639.5C623.594 638.867 624.345 638.365 625.172 638.023C625.999 637.68 626.886 637.504 627.781 637.504H1104.22C1105.11 637.504 1106 637.68 1106.83 638.023C1107.66 638.365 1108.41 638.867 1109.04 639.5C1109.67 640.133 1110.17 640.885 1110.52 641.711C1110.86 642.538 1111.04 643.425 1111.04 644.32C1111.04 645.215 1110.86 646.101 1110.52 646.928C1110.17 647.755 1109.67 648.507 1109.04 649.14C1108.41 649.772 1107.66 650.275 1106.83 650.617C1106 650.96 1105.11 651.136 1104.22 651.136V651.136Z" fill="#E6E6E6"/>
<path d="M1104.22 723.858H627.781C625.973 723.858 624.24 723.14 622.962 721.862C621.683 720.584 620.965 718.85 620.965 717.043C620.965 715.235 621.683 713.501 622.962 712.223C624.24 710.945 625.973 710.227 627.781 710.227H1104.22C1106.03 710.227 1107.76 710.945 1109.04 712.223C1110.32 713.501 1111.04 715.235 1111.04 717.043C1111.04 718.85 1110.32 720.584 1109.04 721.862C1107.76 723.14 1106.03 723.858 1104.22 723.858V723.858Z" fill="#E6E6E6"/>
<path d="M1104.22 796.579H627.781C626.886 796.579 625.999 796.403 625.172 796.06C624.345 795.718 623.594 795.216 622.961 794.583C622.328 793.95 621.826 793.199 621.484 792.372C621.141 791.545 620.965 790.658 620.965 789.763C620.965 788.868 621.141 787.982 621.484 787.155C621.826 786.328 622.328 785.577 622.961 784.944C623.594 784.311 624.345 783.809 625.172 783.466C625.999 783.124 626.886 782.947 627.781 782.947H1104.22C1105.11 782.947 1106 783.124 1106.83 783.466C1107.66 783.809 1108.41 784.311 1109.04 784.944C1109.67 785.577 1110.17 786.328 1110.52 787.155C1110.86 787.982 1111.04 788.868 1111.04 789.763C1111.04 790.658 1110.86 791.545 1110.52 792.372C1110.17 793.199 1109.67 793.95 1109.04 794.583C1108.41 795.216 1107.66 795.718 1106.83 796.06C1106 796.403 1105.11 796.579 1104.22 796.579V796.579Z" fill="#E6E6E6"/>
<path d="M1082.79 912.465C1075.96 912.46 1069.29 910.431 1063.62 906.635C1057.95 902.84 1053.53 897.448 1050.92 891.141C1048.32 884.834 1047.64 877.895 1048.97 871.202C1050.3 864.509 1053.59 858.362 1058.42 853.538C1063.25 848.714 1069.4 845.43 1076.09 844.1C1082.79 842.771 1089.73 843.456 1096.03 846.069C1102.34 848.682 1107.72 853.105 1111.52 858.78C1115.31 864.455 1117.33 871.127 1117.33 877.952C1117.33 887.109 1113.68 895.889 1107.21 902.361C1100.73 908.833 1091.95 912.468 1082.79 912.465V912.465Z" fill="#4D73E3"/>
<path d="M1102.22 876.313L1092.43 862.032C1092 861.395 1091.33 860.957 1090.57 860.813C1089.82 860.67 1089.03 860.832 1088.4 861.265C1087.76 861.699 1087.32 862.367 1087.18 863.123C1087.03 863.88 1087.2 864.662 1087.63 865.299L1087.64 865.312L1093.97 874.548H1069.16C1068.26 874.545 1067.39 874.901 1066.75 875.538C1066.11 876.175 1065.75 877.039 1065.75 877.942C1065.74 878.845 1066.1 879.712 1066.74 880.353C1067.37 880.993 1068.24 881.354 1069.14 881.357H1094.28L1087.64 891.048C1087.42 891.362 1087.27 891.716 1087.19 892.089C1087.12 892.462 1087.11 892.847 1087.18 893.222C1087.25 893.596 1087.4 893.954 1087.6 894.273C1087.81 894.592 1088.08 894.867 1088.4 895.083C1088.71 895.298 1089.06 895.45 1089.44 895.528C1089.81 895.607 1090.19 895.611 1090.57 895.541C1090.94 895.471 1091.3 895.328 1091.62 895.12C1091.94 894.911 1092.21 894.642 1092.43 894.328L1102.22 880.046C1102.54 879.476 1102.71 878.833 1102.71 878.179C1102.71 877.526 1102.54 876.883 1102.22 876.313V876.313Z" fill="white"/>
<path d="M1269.56 256.7H365.26C364.344 256.678 363.473 256.299 362.833 255.644C362.193 254.988 361.835 254.108 361.835 253.192C361.835 252.276 362.193 251.396 362.833 250.741C363.473 250.085 364.344 249.706 365.26 249.684H1269.56C1270.48 249.706 1271.35 250.085 1271.99 250.741C1272.63 251.396 1272.99 252.276 1272.99 253.192C1272.99 254.108 1272.63 254.988 1271.99 255.644C1271.35 256.299 1270.48 256.678 1269.56 256.7Z" fill="#CACACA"/>
<path d="M478.43 948.327C479.814 947.17 480.927 945.724 481.691 944.091C482.455 942.457 482.851 940.676 482.852 938.872C482.853 937.069 482.458 935.287 481.695 933.653C480.933 932.019 479.821 930.572 478.438 929.414L470.949 864.756L447.172 870.256L460.386 931.546C458.595 933.998 457.765 937.023 458.055 940.046C458.344 943.069 459.732 945.881 461.956 947.949C464.18 950.017 467.085 951.198 470.121 951.267C473.158 951.337 476.114 950.29 478.43 948.326V948.327Z" fill="#FFB6B6"/>
<path d="M475.973 875.3L448.445 892.46C448.445 892.46 446.77 902.517 444.877 877.242C444.677 874.604 446.521 870.008 446.319 867.3C446.09 864.245 437.333 862.855 437.103 859.764C436.938 857.564 439.47 855.607 439.303 853.413C439.056 850.089 438.81 846.783 438.568 843.531C438.368 840.811 435.35 839.086 435.156 836.46C434.956 833.813 437.585 830.26 437.4 827.76C436.013 808.945 440.811 761.609 440.811 760.646C440.44 758.229 439.43 755.955 437.886 754.059L439.355 749.668L438.384 741.43C437.106 730.602 439.384 719.651 444.874 710.23L451.865 705.656L484.123 759.871C470.548 806.785 461.687 825.212 475.97 875.299L475.973 875.3Z" fill="#4F74E3"/>
<path d="M454.493 1279.53H471.145L479.07 1215.35H454.493V1279.53Z" fill="#FFB6B6"/>
<path d="M449.059 1268.14L475.659 1266.55V1277.94L500.952 1295.39C502.202 1296.25 503.143 1297.49 503.638 1298.93C504.133 1300.36 504.156 1301.92 503.704 1303.36C503.252 1304.81 502.349 1306.08 501.125 1306.98C499.902 1307.88 498.424 1308.36 496.906 1308.36H465.237L459.778 1297.1L457.646 1308.36H445.7L449.055 1268.14H449.059Z" fill="#2F2E41"/>
<path d="M548.032 1279.53H564.684L572.608 1215.35H548.032V1279.53Z" fill="#FFB6B6"/>
<path d="M542.6 1268.14L569.2 1266.55V1277.94L594.493 1295.39C595.743 1296.25 596.684 1297.49 597.179 1298.93C597.674 1300.36 597.697 1301.92 597.245 1303.36C596.793 1304.81 595.89 1306.08 594.667 1306.98C593.443 1307.88 591.965 1308.36 590.447 1308.36H558.775L553.316 1297.1L551.184 1308.36H539.242L542.597 1268.14H542.6Z" fill="#2F2E41"/>
<path d="M447.425 1224.19H447.49L450.69 1071.34C448.617 1067.35 447.566 1062.9 447.628 1058.4C447.691 1053.91 448.866 1049.49 451.049 1045.56L451.507 1044.73L450.318 1039.22C448.791 1032.14 449.492 1024.77 452.324 1018.11L455.312 920.77C444.638 851.65 495.506 806.57 495.506 806.57H571.706L588.066 862.733C598.881 968.017 596.918 1119.11 579.757 1218.5L580.224 1218.74C581.111 1219.23 581.774 1220.05 582.075 1221.02C582.375 1221.99 582.291 1223.04 581.839 1223.95C581.046 1226.24 579.039 1227.63 577.353 1227.05L537.11 1225.65C536.223 1225.16 535.56 1224.34 535.259 1223.37C534.959 1222.4 535.043 1221.36 535.496 1220.45C536.289 1218.15 538.296 1216.76 539.982 1217.34L542.718 1218.72L539.895 1212.98C538.195 1209.52 537.46 1205.67 537.767 1201.83C538.074 1197.99 539.412 1194.3 541.64 1191.16L541.14 1178.52C539.035 1176.05 537.586 1173.1 536.927 1169.93C536.268 1166.75 536.42 1163.47 537.37 1160.37L540.085 1151.52L536.878 1069.54L537.525 1051.14L536.191 1030.28L530.023 936.418L506.674 1051.84L482.825 1225.35C483.398 1225.86 483.824 1226.52 484.059 1227.26C484.295 1227.99 484.332 1228.77 484.166 1229.53C483.92 1230.53 483.341 1231.41 482.524 1232.04C481.708 1232.67 480.702 1233 479.673 1232.98H447.309C446.63 1232.98 445.961 1232.82 445.352 1232.52C444.744 1232.22 444.214 1231.78 443.803 1231.24C443.392 1230.7 443.111 1230.07 442.983 1229.41C442.854 1228.74 442.881 1228.05 443.062 1227.4C443.335 1226.46 443.911 1225.63 444.699 1225.05C445.488 1224.47 446.446 1224.17 447.425 1224.19V1224.19Z" fill="#2F2E41"/>
<path d="M632.6 923.2C633.738 921.801 634.555 920.169 634.994 918.42C635.433 916.671 635.483 914.847 635.141 913.076C634.799 911.306 634.073 909.632 633.014 908.172C631.954 906.713 630.588 905.503 629.011 904.629L609.364 842.571L587.064 852.487L611.7 910.154C610.416 912.901 610.181 916.023 611.042 918.931C611.902 921.838 613.798 924.331 616.37 925.936C618.942 927.542 622.014 928.15 625.004 927.646C627.994 927.142 630.696 925.56 632.6 923.2V923.2Z" fill="#FFB6B6"/>
<path d="M551.755 725.914C551.755 725.914 574.163 805.151 573.148 813.156C571.055 829.662 468.083 880.401 460.425 857.821L461.385 850.4C457.516 842.668 481.119 811.985 482.265 807.971C483.721 802.839 477.129 785.988 477.129 785.988C477.129 785.988 481.686 770.606 480.958 761.088C480.23 751.57 478.019 753.034 469.958 747.161C461.897 741.288 448.7 714.2 448.7 714.2C448.7 714.2 454.564 687.827 454.564 682.695C454.564 677.563 478.653 668.821 481.578 665.895C482.853 664.198 483.927 662.358 484.778 660.413C485.371 659.228 484.993 656.48 485.627 655.12C486.027 654.231 487.447 654.783 487.865 653.867C488.265 652.978 487.919 651.955 488.323 651.079C488.849 649.921 490.116 648.91 490.614 647.819C492.906 642.809 494.861 638.728 495.467 638.728C496.923 638.728 543.861 645.328 543.861 645.328C546.416 649.276 549.36 652.959 552.65 656.319C557.786 661.437 581.82 673.896 581.82 673.896L551.76 725.915L551.755 725.914Z" fill="#4C71E0"/>
<path d="M615.135 859.218C611.468 862.882 593.325 879.703 592.583 875.299C591.856 870.908 591.459 870.383 588.521 868.928C585.583 867.473 585.582 866.728 584.854 861.601C584.126 856.474 577.521 851.337 578.262 849.141C579.003 846.945 578.311 849.741 578.311 847.53C578.311 845.319 576.111 837.28 573.175 835.811C570.239 834.342 565.842 832.888 568.052 829.225C570.262 825.562 547.36 715.65 547.36 715.65L567.891 675.363L581.815 673.895C581.815 673.895 586.047 676.314 587.372 698.124C587.44 699.224 588.645 701.256 588.696 702.462C588.739 703.462 587.63 703.63 587.661 704.706C587.667 704.935 587.673 705.167 587.679 705.4C587.707 706.469 590.597 707.256 590.64 708.288C590.717 710.132 591.852 721.888 591.975 723.619C592.113 725.567 592.276 727.444 592.463 729.249C594.489 748.904 595.215 750.564 596.47 756.837C598.414 766.547 606.47 823.258 606.47 823.258C606.47 823.258 612.334 824.712 612.334 829.844C612.334 834.976 618.802 845.291 615.876 851.15C612.95 857.009 618.802 855.55 615.135 859.218V859.218Z" fill="#4C72E6"/>
<path d="M515.339 637.223C522.211 637.218 528.926 635.175 534.637 631.354C540.348 627.532 544.798 622.103 547.424 615.753C550.05 609.403 550.734 602.417 549.39 595.678C548.046 588.94 544.735 582.75 539.874 577.893C535.013 573.036 528.821 569.729 522.081 568.391C515.341 567.052 508.356 567.742 502.008 570.373C495.66 573.004 490.234 577.458 486.417 583.171C482.6 588.885 480.563 595.603 480.563 602.474C480.567 611.694 484.233 620.534 490.754 627.051C497.276 633.567 506.119 637.227 515.339 637.223V637.223Z" fill="#FFB8B8"/>
<path d="M440.4 675.5C433.04 672.894 425.681 670.283 418.323 667.667C419.591 665.54 421.207 663.64 423.102 662.046C430.109 656.2 439.78 655.146 448.676 653.172C457.572 651.198 467.257 647.156 470.514 638.648C473.898 629.801 468.992 620.248 466.144 611.234C461.937 598.589 462.448 584.849 467.582 572.551C470.206 566.475 474.195 561.086 479.238 556.801C484.282 552.516 490.246 549.451 496.666 547.843C509.552 544.983 524.115 549.643 532.038 560.183C537.141 558.652 542.629 559.042 547.465 561.279C552.301 563.516 556.151 567.445 558.289 572.326C559.294 574.613 559.741 577.105 559.594 579.598C559.447 582.092 558.709 584.514 557.443 586.667C554.694 590.822 548.815 592.949 544.388 590.639L546.954 584.131C539.017 586.821 533.854 601.162 534.928 609.474C535.986 617.774 540.835 625.04 545.756 631.816C550.677 638.592 555.921 645.438 558.035 653.538C561.08 665.188 556.964 677.922 549.351 687.262C541.738 696.602 531.009 702.941 519.9 707.604C511.583 711.098 502.941 713.759 494.1 715.549C495.679 712.478 497.244 709.407 498.823 706.336L480.087 717.662C476.464 718.014 472.812 718.226 469.161 718.296C458.531 718.479 447.689 717.366 437.961 713.126C428.233 708.886 419.661 701.166 416.137 691.15C415.007 687.911 414.472 684.494 414.558 681.064C423.172 679.205 431.785 677.35 440.399 675.5H440.4Z" fill="#2F2E41"/>
<path d="M776.466 1311.01H711.966L711.689 1310.51C710.865 1309.01 710.068 1307.43 709.324 1305.8C702.681 1291.59 699.873 1275.33 697.395 1260.99L695.529 1250.18C695.305 1248.87 695.476 1247.52 696.021 1246.31C696.567 1245.1 697.461 1244.08 698.589 1243.38C699.718 1242.68 701.03 1242.33 702.358 1242.38C703.686 1242.43 704.969 1242.87 706.044 1243.65C715.844 1250.78 725.65 1257.9 735.461 1265.01C739.175 1267.71 743.417 1270.84 747.48 1274.22C747.872 1272.32 748.28 1270.41 748.692 1268.53C748.975 1267.23 749.639 1266.04 750.6 1265.12C751.561 1264.2 752.774 1263.59 754.085 1263.37C755.396 1263.14 756.744 1263.31 757.958 1263.85C759.172 1264.4 760.196 1265.29 760.899 1266.42L768.445 1278.53C773.945 1287.38 778.807 1296.1 777.817 1305.5C777.822 1305.61 777.813 1305.73 777.791 1305.84C777.593 1307.39 777.226 1308.9 776.696 1310.37L776.465 1311.01H776.466Z" fill="#B6B0B0"/>
<path d="M841.2 1312.4L228.3 1313C227.688 1313 227.1 1312.76 226.667 1312.32C226.234 1311.89 225.99 1311.3 225.99 1310.69C225.99 1310.08 226.234 1309.49 226.667 1309.06C227.1 1308.62 227.688 1308.38 228.3 1308.38L841.2 1307.78C841.813 1307.78 842.4 1308.02 842.834 1308.46C843.267 1308.89 843.51 1309.48 843.51 1310.09C843.51 1310.7 843.267 1311.29 842.834 1311.72C842.4 1312.16 841.813 1312.4 841.2 1312.4V1312.4Z" fill="#CACACA"/>
<path d="M400.693 220.577C404.028 220.648 407.309 219.724 410.118 217.922C412.926 216.12 415.133 213.523 416.459 210.461C417.785 207.4 418.169 204.013 417.561 200.732C416.954 197.451 415.383 194.426 413.049 192.042C410.715 189.658 407.724 188.023 404.457 187.346C401.19 186.669 397.795 186.981 394.706 188.241C391.617 189.502 388.973 191.654 387.112 194.423C385.252 197.192 384.258 200.453 384.258 203.789C384.212 208.194 385.917 212.438 388.999 215.586C392.081 218.734 396.287 220.53 400.693 220.577V220.577Z" fill="#3F3D56"/>
<path d="M457.471 220.577C460.807 220.648 464.088 219.723 466.896 217.922C469.704 216.12 471.911 213.522 473.237 210.461C474.562 207.399 474.946 204.012 474.338 200.731C473.731 197.451 472.16 194.426 469.826 192.042C467.492 189.658 464.501 188.023 461.234 187.346C457.967 186.669 454.572 186.981 451.483 188.241C448.394 189.502 445.751 191.654 443.89 194.423C442.029 197.192 441.035 200.453 441.035 203.789C440.989 208.195 442.694 212.438 445.776 215.587C448.859 218.735 453.065 220.53 457.471 220.577Z" fill="#3F3D56"/>
<path d="M514.248 220.577C517.583 220.648 520.865 219.723 523.672 217.922C526.48 216.12 528.688 213.522 530.014 210.461C531.339 207.399 531.723 204.012 531.115 200.731C530.508 197.451 528.937 194.426 526.603 192.042C524.269 189.658 521.278 188.023 518.011 187.346C514.744 186.669 511.349 186.981 508.26 188.241C505.171 189.502 502.527 191.654 500.667 194.423C498.806 197.192 497.812 200.453 497.812 203.789C497.766 208.195 499.471 212.438 502.553 215.587C505.636 218.735 509.842 220.53 514.248 220.577Z" fill="#3F3D56"/>
<path d="M578.989 217.057C578.73 217.058 578.474 217.006 578.236 216.906C577.997 216.806 577.781 216.658 577.6 216.473L566.51 205.145C566.155 204.782 565.956 204.295 565.956 203.787C565.956 203.279 566.155 202.792 566.51 202.429L577.6 191.1C577.96 190.732 578.452 190.521 578.967 190.516C579.482 190.51 579.978 190.709 580.347 191.069C580.715 191.429 580.925 191.92 580.931 192.435C580.937 192.95 580.738 193.447 580.378 193.815L570.618 203.784L580.378 213.754C580.646 214.027 580.826 214.374 580.898 214.749C580.969 215.125 580.928 215.513 580.78 215.865C580.632 216.218 580.383 216.519 580.064 216.73C579.745 216.942 579.372 217.054 578.989 217.054V217.057Z" fill="#3F3D56"/>
<path d="M597.624 217.058C597.242 217.058 596.868 216.945 596.549 216.734C596.231 216.523 595.982 216.222 595.833 215.869C595.685 215.517 595.644 215.129 595.715 214.753C595.787 214.378 595.968 214.031 596.235 213.758L605.994 203.789L596.235 193.82C595.888 193.449 595.7 192.957 595.711 192.449C595.722 191.941 595.932 191.458 596.295 191.103C596.658 190.748 597.146 190.549 597.654 190.549C598.162 190.549 598.65 190.749 599.013 191.104L610.1 202.431C610.455 202.794 610.654 203.281 610.654 203.789C610.654 204.297 610.455 204.784 610.1 205.147L599.011 216.474C598.83 216.659 598.614 216.806 598.376 216.907C598.137 217.007 597.881 217.059 597.622 217.058H597.624Z" fill="#3F3D56"/>
<path d="M1177.78 188.943H1157.16C1156.03 188.942 1154.95 189.39 1154.15 190.188C1153.35 190.985 1152.9 192.067 1152.9 193.196V213.82C1152.9 214.949 1153.35 216.031 1154.15 216.828C1154.95 217.626 1156.03 218.073 1157.16 218.073H1177.78C1178.91 218.074 1180 217.627 1180.8 216.83C1181.6 216.033 1182.05 214.951 1182.06 213.82V193.2C1182.05 192.069 1181.6 190.987 1180.8 190.189C1180 189.392 1178.91 188.946 1177.78 188.947V188.943Z" fill="#3F3D56"/>
<path d="M1127.25 188.943H1106.63C1105.5 188.942 1104.42 189.39 1103.62 190.188C1102.82 190.985 1102.37 192.067 1102.37 193.196V213.82C1102.37 214.949 1102.82 216.031 1103.62 216.828C1104.42 217.626 1105.5 218.073 1106.63 218.073H1127.25C1128.38 218.074 1129.47 217.627 1130.27 216.83C1131.07 216.033 1131.52 214.951 1131.53 213.82V193.2C1131.52 192.069 1131.07 190.987 1130.27 190.189C1129.47 189.392 1128.38 188.946 1127.25 188.947V188.943Z" fill="#3F3D56"/>
<path d="M1225.4 189.914H1204.78C1204.22 189.913 1203.67 190.022 1203.15 190.235C1202.63 190.448 1202.16 190.762 1201.77 191.157C1201.37 191.552 1201.06 192.021 1200.84 192.538C1200.63 193.054 1200.52 193.608 1200.52 194.167V214.791C1200.52 215.35 1200.63 215.904 1200.84 216.421C1201.06 216.937 1201.37 217.406 1201.77 217.801C1202.16 218.197 1202.63 218.51 1203.15 218.723C1203.67 218.936 1204.22 219.045 1204.78 219.044H1225.4C1226.53 219.045 1227.61 218.598 1228.41 217.801C1229.22 217.003 1229.67 215.921 1229.67 214.791V194.167C1229.67 193.037 1229.22 191.955 1228.41 191.158C1227.61 190.36 1226.53 189.913 1225.4 189.914Z" fill="#3F3D56"/>
<path d="M914.588 197.76H749.758C748.383 197.76 747.064 198.306 746.092 199.279C745.12 200.251 744.573 201.57 744.573 202.945C744.573 204.32 745.12 205.639 746.092 206.611C747.064 207.584 748.383 208.13 749.758 208.13H914.588C915.963 208.13 917.282 207.584 918.255 206.611C919.227 205.639 919.773 204.32 919.773 202.945C919.773 201.57 919.227 200.251 918.255 199.279C917.282 198.306 915.963 197.76 914.588 197.76V197.76Z" fill="#3F3D56"/>
<path d="M208 698H196V1285H208V698Z" fill="#B6B0B0"/>
<path d="M187.039 572.342H217.153L262.934 698H141.063L187.039 572.342Z" fill="#B6B0B0"/>
</g>
<defs>
<clipPath id="clip0_1371_114">
<rect width="1500" height="1500" fill="white"/>
</clipPath>
</defs>
</svg>
