<svg xmlns="http://www.w3.org/2000/svg" xmlns:xlink="http://www.w3.org/1999/xlink" width="1500" height="1500" viewBox="0 0 1500 1500">
<defs>
<clipPath id="clip-path">
<rect id="Rectangle_2194" data-name="Rectangle 2194" width="1259" height="798" transform="translate(121 351)" fill="#fff"></rect>
</clipPath>
<clipPath id="clip-undraw_analysis_re_w2vd">
<rect width="1500" height="1500" id="id_101"></rect>
</clipPath>
</defs>
<g id="undraw_analysis_re_w2vd" clip-path="url(#clip-undraw_analysis_re_w2vd)">
<rect width="1500" height="1500" fill="#fff" id="id_102"></rect>
<g id="undraw_analysis_re_w2vd-2" data-name="undraw_analysis_re_w2vd">
<g id="undraw_analysis_re_w2vd-3" data-name="undraw_analysis_re_w2vd">
<rect id="Rectangle_2193" data-name="Rectangle 2193" width="1500" height="1500" fill="#fff" opacity="0"></rect>
<g id="Group_441" data-name="Group 441" clip-path="url(#clip-path)">
<path id="Path_16035" data-name="Path 16035" d="M1281.96,1132.09H1264.3l-8.4-137.18h26.06Z" fill="#a0616a"></path>
<path id="Path_16036" data-name="Path 16036" d="M1251.69,1127.05h34.05v21.43h-55.49a21.44,21.44,0,0,1,21.44-21.43Z" fill="#2f2e41"></path>
<path id="Path_16037" data-name="Path 16037" d="M1370.05,1113.54l-16.22,6.96-69.62-129.21,23.94-10.284Z" fill="#a0616a"></path>
<path id="Path_16038" data-name="Path 16038" d="M1340.25,1120.85l31.28-13.44,8.47,19.69-50.98,21.9a21.441,21.441,0,0,1,11.23-28.15Z" fill="#2f2e41"></path>
<path id="Path_16039" data-name="Path 16039" d="M1112.9,532.529H806.985a9.125,9.125,0,0,1-9.117-9.113v-163.3A9.125,9.125,0,0,1,806.985,351H1112.9a9.137,9.137,0,0,1,9.12,9.113v163.3a9.137,9.137,0,0,1-9.12,9.113Z" fill="#e6e6e6"></path>
<path id="Path_16040" data-name="Path 16040" d="M859.233,465.276a33.622,33.622,0,1,0-33.638-33.621A33.629,33.629,0,0,0,859.233,465.276Z" fill="#fff"></path>
<path id="Path_16041" data-name="Path 16041" d="M1075.83,401.549H938.494a5.141,5.141,0,1,1,0-10.281H1075.83a5.141,5.141,0,1,1,0,10.281Z" fill="#fff"></path>
<path id="Path_16042" data-name="Path 16042" d="M1003.94,425.049H938.494a5.141,5.141,0,1,1,0-10.281h65.446a5.141,5.141,0,0,1,0,10.281Z" fill="#fff"></path>
<path id="Path_16043" data-name="Path 16043" d="M1050.03,448.539H938.494a5.141,5.141,0,1,1,0-10.281H1050.03a5.141,5.141,0,0,1,0,10.281Z" fill="#fff"></path>
<path id="Path_16044" data-name="Path 16044" d="M1075.83,472.029H938.494a5.141,5.141,0,1,1,0-10.281H1075.83a5.141,5.141,0,1,1,0,10.281Z" fill="#fff"></path>
<path id="Path_16045" data-name="Path 16045" d="M1071.53,514.528h-22.74a9.451,9.451,0,0,1-6.69-2.759,9.656,9.656,0,0,1-2.05-3.065,9.439,9.439,0,0,1,0-7.232,9.437,9.437,0,0,1,5.12-5.11,9.477,9.477,0,0,1,3.62-.714h22.74a9.44,9.44,0,1,1,0,18.88Z" fill="#fff"></path>
<path id="Path_16046" data-name="Path 16046" d="M657.905,547.738h-213.6a6.373,6.373,0,0,1-6.366-6.363V427.353a6.373,6.373,0,0,1,6.366-6.363h213.6a6.371,6.371,0,0,1,6.366,6.363V541.375a6.371,6.371,0,0,1-6.366,6.363Z" fill="#f2f2f2"></path>
<path id="Path_16047" data-name="Path 16047" d="M480.79,500.781A23.476,23.476,0,1,0,457.3,477.3,23.481,23.481,0,0,0,480.79,500.781Z" fill="#fff"></path>
<path id="Path_16048" data-name="Path 16048" d="M632.026,456.284H536.132a3.589,3.589,0,1,1,0-7.179h95.894a3.589,3.589,0,1,1,0,7.179Z" fill="#fff"></path>
<path id="Path_16049" data-name="Path 16049" d="M581.825,472.694H536.132a3.589,3.589,0,0,1,0-7.178h45.693a3.589,3.589,0,0,1,0,7.178Z" fill="#fff"></path>
<path id="Path_16050" data-name="Path 16050" d="M614.006,489.1H536.132a3.59,3.59,0,0,1,0-7.179h77.874a3.59,3.59,0,0,1,0,7.179Z" fill="#fff"></path>
<path id="Path_16051" data-name="Path 16051" d="M632.026,505.5H536.132a3.59,3.59,0,0,1,0-7.179h95.894a3.59,3.59,0,1,1,0,7.179Z" fill="#fff"></path>
<path id="Path_16052" data-name="Path 16052" d="M629.023,535.17H613.145a6.591,6.591,0,1,1,0-13.182h15.878a6.591,6.591,0,1,1,0,13.182Z" fill="#fff"></path>
<path id="Path_16053" data-name="Path 16053" d="M1023.28,724.3H623.865a11.916,11.916,0,0,1-11.9-11.9V499.187a11.916,11.916,0,0,1,11.9-11.9H1023.28a11.914,11.914,0,0,1,11.91,11.9V712.405a11.914,11.914,0,0,1-11.91,11.9Z" fill="#5487de"></path>
<path id="Path_16054" data-name="Path 16054" d="M692.083,636.493a43.9,43.9,0,1,0-43.919-43.9A43.909,43.909,0,0,0,692.083,636.493Z" fill="#fff"></path>
<path id="Path_16055" data-name="Path 16055" d="M974.888,553.287H795.571a6.712,6.712,0,1,1,0-13.424H974.888a6.712,6.712,0,1,1,0,13.424Z" fill="#fff"></path>
<path id="Path_16056" data-name="Path 16056" d="M881.014,583.971H795.571a6.712,6.712,0,1,1,0-13.424h85.443a6.712,6.712,0,1,1,0,13.424Z" fill="#fff"></path>
<path id="Path_16057" data-name="Path 16057" d="M941.192,614.641H795.571a6.712,6.712,0,1,1,0-13.424H941.192a6.712,6.712,0,1,1,0,13.424Z" fill="#fff"></path>
<path id="Path_16058" data-name="Path 16058" d="M974.888,645.311H795.571a6.712,6.712,0,1,1,0-13.424H974.888a6.712,6.712,0,1,1,0,13.424Z" fill="#fff"></path>
<path id="Path_16059" data-name="Path 16059" d="M969.273,700.8H939.582a12.325,12.325,0,1,1,0-24.65h29.691a12.325,12.325,0,1,1,0,24.65Z" fill="#fff"></path>
<path id="Path_16060" data-name="Path 16060" d="M1372.65,995.122s-35-178.363-40.52-193.4c-3.04-8.217-5.04-14.194-5.04-14.194l-102.85,5.879-.84,8.315-13.87,208.6s4.9-13.252,9.3-15.688,3.94,15.668,3.94,15.668" fill="#2f2e41"></path>
<path id="Path_16061" data-name="Path 16061" d="M1225.02,793.337h90.03c-2.53-9.041,0-17.421,3.61-23.849a52.71,52.71,0,0,1,9.42-12.229l.62-.553,31.45-6.97,1.7-.369s.25-57.119-19.98-64.957a123.437,123.437,0,0,1-31-17.307,5.564,5.564,0,0,0-3.26-1.191l-44.15-1.616a5.62,5.62,0,0,0-3.74,1.257c-7.3,5.867-30.52,17.644-43,23.8a9.51,9.51,0,0,0-4.51,12.321c4.99,11.439,13.45,30.571,14.34,30.571C1227.82,732.25,1225.02,793.337,1225.02,793.337Z" fill="#4f82db"></path>
<path id="Path_16062" data-name="Path 16062" d="M1286.06,700.7l42.3,109.345s-28.6,6.592-56.19-27.109l-9.95-21.72-22.43-82.781Z" fill="#f6f8fb"></path>
<path id="Path_16063" data-name="Path 16063" d="M1297.29,642.159a57.392,57.392,0,1,0-57.42-57.392A57.407,57.407,0,0,0,1297.29,642.159Z" fill="#2f2e41"></path>
<path id="Path_16064" data-name="Path 16064" d="M1260.86,777.057a11.726,11.726,0,0,0,13.52,3.565l30.77,12.032,10.25-23.162-34.67-4.474a11.714,11.714,0,1,0-19.87,12.039Z" fill="#a0616a"></path>
<path id="Path_16065" data-name="Path 16065" d="M1288.58,655.993a36.729,36.729,0,1,0-36.75-36.729A36.737,36.737,0,0,0,1288.58,655.993Z" fill="#a0616a"></path>
<path id="Path_16066" data-name="Path 16066" d="M1340.26,594.937a126.939,126.939,0,0,1-63.78,15.4c-8.52-.221-17.91-1.77-23.31-8.364-6.08-7.44-4.56-19.065,1.31-26.676s15.06-11.9,24.23-14.812c8.67-2.754,17.96-4.527,26.85-2.6a33.414,33.414,0,0,1,24.24,44.408" fill="#2f2e41"></path>
<path id="Path_16067" data-name="Path 16067" d="M1337.9,576.368a32.2,32.2,0,1,0-32.21-32.2A32.2,32.2,0,0,0,1337.9,576.368Z" fill="#2f2e41"></path>
<path id="Path_16068" data-name="Path 16068" d="M1349.44,734.191l12.4,15.177,2.52,41.2s3.26,20.977-20.74,15.925-54.86-14.876-54.86-14.876,16.43-23.8,9.09-30.622l34.4,11.122s5.81-1.268,1.26-6.32-5.36-14.158-5.36-14.158Z" fill="#5183db"></path>
<path id="Path_16069" data-name="Path 16069" d="M1285.78,769.856a11.723,11.723,0,0,1-13.29-4.337l-32.37-6.573,3.96-25.014,31.54,15.036a11.726,11.726,0,0,1,13.93.78,11.6,11.6,0,0,1,3.04,3.886,11.7,11.7,0,0,1-6.81,16.222Z" fill="#a0616a"></path>
<path id="Path_16070" data-name="Path 16070" d="M1243.06,712.016s-5.62,7.214-12.19,8.988-2.37,5.991-2.37,5.991l34.93,9.307c-9.86,1.752-8.98,30.658-8.98,30.658s-31.27-8.491-54.17-17.257-8.77-24.623-8.77-24.623l24.48-33.235,18.65-6.027Z" fill="#5084de"></path>
<path id="Path_16071" data-name="Path 16071" d="M172.015,1104.66l16.852,7.24,35.955-61.53-24.872-10.68Z" fill="#ffb8b8"></path>
<path id="Path_16072" data-name="Path 16072" d="M214.642,1141.5l-52.964-22.75,8.8-20.45,33.265,14.29a21.425,21.425,0,0,1,11.233,28.15l-.329.76Z" fill="#2f2e41"></path>
<path id="Path_16073" data-name="Path 16073" d="M288.258,1125.39H306.6l8.729-70.72H288.258Z" fill="#ffb8b8"></path>
<path id="Path_16074" data-name="Path 16074" d="M341.975,1142.41H284.328v-22.26h36.207a21.44,21.44,0,0,1,21.44,21.43v.83Z" fill="#2f2e41"></path>
<g id="Group_440" data-name="Group 440" opacity="0.1">
<path id="Path_16075" data-name="Path 16075" d="M176.594,585.875l1.037.224a1.4,1.4,0,0,0-1.037-.224Z" fill="#fff" opacity="0.1"></path>
</g>
<path id="Path_16076" data-name="Path 16076" d="M319.237,1062.07l-42.192,1.67c-10.3-6.92-42.278-170.431-42.278-170.431.218,1.266-4,162.291-4,162.291H185.373l-22.3-251.1,24.615,9.906s112.711-9.135,117.963-2.635C306.756,813.893,319.237,1062.07,319.237,1062.07Z" fill="#2f2e41"></path>
<path id="Path_16077" data-name="Path 16077" d="M224.217,626.6A36.729,36.729,0,1,0,187.47,589.87,36.738,36.738,0,0,0,224.217,626.6Z" fill="#ffb8b8"></path>
<path id="Path_16078" data-name="Path 16078" d="M286.484,879.815a12.168,12.168,0,0,1-.16-14.519l-4.316-34.027,25.945-4.439-4.291,36.034a12.167,12.167,0,1,1-17.178,16.951Z" fill="#ffb8b8"></path>
<path id="Path_16079" data-name="Path 16079" d="M229.784,565.234l.81.175a1.125,1.125,0,0,0-.81-.175Z" fill="#e1e7ef"></path>
<path id="Path_16080" data-name="Path 16080" d="M212.417,576.1c8,1.747,16.142,3.413,24.313,2.87s16.505-3.567,21.811-9.8,6.774-16.024,2.064-22.72c-5.6-7.962-16.829-8.917-26.565-9.119l-30.676-.635c-6.061-.126-12.421-.185-17.789,2.631-9.326,4.892-12.546,16.775-12.359,27.3a69.812,69.812,0,0,0,25.669,52.387c4.151,3.34,10.986,5.879,14.151,1.594,1.38-1.869-12.092-23.375-12.131-25.7-.226-13.5,13.038-8,12.812-21.5" fill="#2f2e41"></path>
<path id="Path_16081" data-name="Path 16081" d="M177,813.763c34.969,27.334,73.567,41.112,117.26,35.861-18.454-64.761-23.927-129.032-6.126-192.423l-36.753-16.618-49.879-2.624-30.026,8.827a20.072,20.072,0,0,0-14.4,19.647C158.138,720.494,163.108,771.087,177,813.763Z" fill="#e6e6e6"></path>
<path id="Path_16082" data-name="Path 16082" d="M287.263,854.873l22.752,2.624-5.327-168.866a39.307,39.307,0,0,0-24.181-35.044l-8.12-3.382,2.188,79.156Z" fill="#e6e6e6"></path>
<path id="Path_16083" data-name="Path 16083" d="M175.74,843.483a12.171,12.171,0,0,1-5.9-13.27l-17.436-29.541,22.069-14.34L184.8,821.121a12.165,12.165,0,1,1-9.064,22.362Z" fill="#ffb8b8"></path>
<path id="Path_16084" data-name="Path 16084" d="M166.5,830.383l21.3-15.7-23.052-68.263,8.314-100.147c-18.059,5.672-37.449,20.911-40.643,39.56L121,752.539Z" fill="#e6e6e6"></path>
<path id="Path_16085" data-name="Path 16085" d="M175.514,730.338l-9.377,37.484,21.277,53.191-16.228-50.308Z" opacity="0.2"></path>
<path id="Path_16086" data-name="Path 16086" d="M268.381,749.77l7.237,80.322-12.255-79.763Z" opacity="0.2"></path>
</g>
</g>
<g id="Group_453" data-name="Group 453" transform="translate(688.579 788.658)">
<path id="Path_16663" data-name="Path 16663" d="M299.447,661.942c16.731-.008,30.288-13.881,30.28-30.985a31.559,31.559,0,0,0-2.378-12.013l-4.464,1.923a26.233,26.233,0,0,1-13.57,34.081,24.939,24.939,0,0,1-19.3.195l-1.8,4.6A29.559,29.559,0,0,0,299.447,661.942Z" transform="translate(-142.593 -453.954)" fill="#2f2e41"></path>
<path id="Path_16664" data-name="Path 16664" d="M212.546,529.012h37.548v-9.9l-30.28-8.668Z" transform="translate(-102.324 -321.643)" fill="#2f2e41"></path>
<path id="Path_16665" data-name="Path 16665" d="M439.721,645.595H340.4a20.824,20.824,0,0,0,20.591,21.049h58.138a20.824,20.824,0,0,0,20.591-21.049Z" transform="translate(-316.175 -448.131)" fill="#2f2e41"></path>
<path id="Path_16666" data-name="Path 16666" d="M341.806,661.2h110.22a14.86,14.86,0,1,0,0-29.72l-110.22,0a14.86,14.86,0,1,0,0,29.72Z" transform="translate(-326.944 -451.215)" fill="#cacaca"></path>
<path id="Path_16676" data-name="Path 16676" d="M297.546,662.567a23.3,23.3,0,0,0,23.013-23.526V506.554a23.016,23.016,0,1,0-46.032,0l.006,132.488a23.3,23.3,0,0,0,23.013,23.526Z" transform="translate(-116.748 -483.535)" fill="#cacaca"></path>
<path id="Path_16677" data-name="Path 16677" d="M361.118,779.693h27.858V658.413h9.69v121.28h27.858a15.924,15.924,0,0,1,15.746,16.1h-96.9A15.924,15.924,0,0,1,361.118,779.693Z" transform="translate(-324.78 -445.331)" fill="#2f2e41"></path>
</g>
</g>
</g>
</svg>